<svg xmlns="http://www.w3.org/2000/svg" xmlns:xlink="http://www.w3.org/1999/xlink" width="2758" height="1462" viewBox="0 0 2758 1462">
  <defs>
    <clipPath id="clip-path">
      <ellipse id="Ellipse_2" data-name="Ellipse 2" cx="826" cy="829.5" rx="826" ry="829.5" transform="translate(1360 1472) rotate(180)" fill="#dedede" opacity="0.49"/>
    </clipPath>
    <clipPath id="clip-headerBg">
      <rect width="2758" height="1462"/>
    </clipPath>
  </defs>
  <g id="headerBg" clip-path="url(#clip-headerBg)">
    <rect width="2758" height="1462" fill="#fff"/>
    <g id="Mask_Group_3" data-name="Mask Group 3" transform="translate(845 509)" opacity="0.29" clip-path="url(#clip-path)" style="mix-blend-mode: exclusion;isolation: isolate">
      <path id="ellipse8455" d="M1744.194,1130.417a13.777,13.777,0,1,1-13.778-13.777,13.777,13.777,0,0,1,13.778,13.777Zm-143.453,0a13.777,13.777,0,1,1-13.778-13.777,13.777,13.777,0,0,1,13.778,13.777Zm-143.453,0a13.777,13.777,0,1,1-13.778-13.777,13.777,13.777,0,0,1,13.778,13.777Zm-143.453,0a13.777,13.777,0,1,1-13.778-13.777,13.777,13.777,0,0,1,13.778,13.777Zm-143.453,0a13.777,13.777,0,1,1-13.778-13.777,13.777,13.777,0,0,1,13.778,13.777Zm-143.453,0a13.777,13.777,0,1,1-13.778-13.777,13.777,13.777,0,0,1,13.778,13.777Zm-143.453,0A13.777,13.777,0,1,1,869.7,1116.64a13.777,13.777,0,0,1,13.778,13.777Zm-143.453,0a13.777,13.777,0,1,1-13.778-13.777,13.777,13.777,0,0,1,13.778,13.777Zm-143.453,0a13.777,13.777,0,1,1-13.778-13.777,13.777,13.777,0,0,1,13.778,13.777Zm-143.453,0a13.777,13.777,0,1,1-13.778-13.777,13.777,13.777,0,0,1,13.778,13.777Zm-143.453,0a13.777,13.777,0,1,1-13.777-13.777,13.777,13.777,0,0,1,13.777,13.777Zm-143.453,0a13.777,13.777,0,1,1-13.777-13.777,13.777,13.777,0,0,1,13.777,13.777Zm-143.453,0A13.777,13.777,0,1,1,8.975,1116.64a13.777,13.777,0,0,1,13.777,13.777ZM1744.194,986.963a13.777,13.777,0,1,1-13.777-13.777,13.777,13.777,0,0,1,13.777,13.777Zm-143.453,0a13.777,13.777,0,1,1-13.777-13.777,13.777,13.777,0,0,1,13.777,13.777Zm-143.453,0a13.777,13.777,0,1,1-13.777-13.777,13.777,13.777,0,0,1,13.777,13.777Zm-143.453,0a13.777,13.777,0,1,1-13.777-13.777,13.777,13.777,0,0,1,13.777,13.777Zm-143.453,0a13.777,13.777,0,1,1-13.777-13.777,13.777,13.777,0,0,1,13.777,13.777Zm-143.453,0a13.777,13.777,0,1,1-13.777-13.777,13.777,13.777,0,0,1,13.777,13.777Zm-143.453,0A13.777,13.777,0,1,1,869.7,973.186a13.777,13.777,0,0,1,13.778,13.777Zm-143.453,0a13.777,13.777,0,1,1-13.777-13.777,13.777,13.777,0,0,1,13.777,13.777Zm-143.453,0a13.777,13.777,0,1,1-13.777-13.777,13.777,13.777,0,0,1,13.777,13.777Zm-143.453,0a13.777,13.777,0,1,1-13.778-13.777,13.777,13.777,0,0,1,13.778,13.777Zm-143.453,0a13.777,13.777,0,1,1-13.777-13.777,13.777,13.777,0,0,1,13.777,13.777Zm-143.453,0a13.777,13.777,0,1,1-13.777-13.777,13.777,13.777,0,0,1,13.777,13.777Zm-143.454,0A13.777,13.777,0,1,1,8.975,973.186a13.777,13.777,0,0,1,13.777,13.777ZM1744.194,843.51a13.777,13.777,0,1,1-13.777-13.777,13.777,13.777,0,0,1,13.777,13.777Zm-143.453,0a13.777,13.777,0,1,1-13.777-13.777,13.777,13.777,0,0,1,13.777,13.777Zm-143.453,0a13.777,13.777,0,1,1-13.777-13.777,13.777,13.777,0,0,1,13.777,13.777Zm-143.453,0a13.777,13.777,0,1,1-13.777-13.777,13.777,13.777,0,0,1,13.777,13.777Zm-143.453,0a13.777,13.777,0,1,1-13.777-13.777,13.777,13.777,0,0,1,13.777,13.777Zm-143.453,0a13.777,13.777,0,1,1-13.777-13.777,13.777,13.777,0,0,1,13.777,13.777Zm-143.453,0A13.777,13.777,0,1,1,869.7,829.733a13.777,13.777,0,0,1,13.777,13.777Zm-143.453,0a13.777,13.777,0,1,1-13.777-13.777A13.777,13.777,0,0,1,740.02,843.51Zm-143.453,0a13.777,13.777,0,1,1-13.777-13.777,13.777,13.777,0,0,1,13.777,13.777Zm-143.453,0a13.777,13.777,0,1,1-13.777-13.777,13.777,13.777,0,0,1,13.777,13.777Zm-143.453,0a13.777,13.777,0,1,1-13.777-13.777A13.777,13.777,0,0,1,309.659,843.51Zm-143.453,0a13.777,13.777,0,1,1-13.777-13.777,13.777,13.777,0,0,1,13.777,13.777Zm-143.453,0A13.777,13.777,0,1,1,8.976,829.733,13.777,13.777,0,0,1,22.752,843.51ZM1744.194,700.056a13.777,13.777,0,1,1-13.777-13.777,13.777,13.777,0,0,1,13.777,13.777Zm-143.453,0a13.777,13.777,0,1,1-13.777-13.777,13.777,13.777,0,0,1,13.777,13.777Zm-143.453,0a13.777,13.777,0,1,1-13.777-13.777A13.777,13.777,0,0,1,1457.287,700.056Zm-143.453,0a13.777,13.777,0,1,1-13.777-13.777,13.777,13.777,0,0,1,13.777,13.777Zm-143.453,0a13.777,13.777,0,1,1-13.777-13.777A13.777,13.777,0,0,1,1170.38,700.056Zm-143.453,0a13.777,13.777,0,1,1-13.777-13.777,13.777,13.777,0,0,1,13.777,13.777Zm-143.453,0A13.777,13.777,0,1,1,869.7,686.279,13.777,13.777,0,0,1,883.473,700.056Zm-143.453,0a13.777,13.777,0,1,1-13.777-13.777A13.777,13.777,0,0,1,740.02,700.056Zm-143.453,0a13.777,13.777,0,1,1-13.777-13.777,13.777,13.777,0,0,1,13.777,13.777Zm-143.453,0a13.777,13.777,0,1,1-13.777-13.777,13.777,13.777,0,0,1,13.777,13.777Zm-143.453,0a13.777,13.777,0,1,1-13.776-13.777,13.777,13.777,0,0,1,13.776,13.777Zm-143.453,0a13.777,13.777,0,1,1-13.777-13.777,13.777,13.777,0,0,1,13.777,13.777Zm-143.453,0A13.777,13.777,0,1,1,8.976,686.279a13.777,13.777,0,0,1,13.776,13.777ZM1744.194,556.6a13.777,13.777,0,1,1-13.777-13.777,13.777,13.777,0,0,1,13.777,13.777Zm-143.453,0a13.777,13.777,0,1,1-13.777-13.777A13.777,13.777,0,0,1,1600.74,556.6Zm-143.453,0a13.777,13.777,0,1,1-13.777-13.777A13.777,13.777,0,0,1,1457.287,556.6Zm-143.453,0a13.777,13.777,0,1,1-13.777-13.777,13.777,13.777,0,0,1,13.777,13.777Zm-143.453,0a13.777,13.777,0,1,1-13.777-13.777A13.777,13.777,0,0,1,1170.38,556.6Zm-143.453,0a13.777,13.777,0,1,1-13.777-13.777,13.777,13.777,0,0,1,13.777,13.777Zm-143.453,0A13.777,13.777,0,1,1,869.7,542.826,13.777,13.777,0,0,1,883.473,556.6Zm-143.453,0a13.777,13.777,0,1,1-13.777-13.777A13.777,13.777,0,0,1,740.02,556.6Zm-143.453,0a13.777,13.777,0,1,1-13.777-13.777A13.777,13.777,0,0,1,596.566,556.6Zm-143.453,0a13.777,13.777,0,1,1-13.777-13.777A13.777,13.777,0,0,1,453.113,556.6Zm-143.453,0a13.777,13.777,0,1,1-13.777-13.777A13.777,13.777,0,0,1,309.659,556.6Zm-143.453,0a13.777,13.777,0,1,1-13.776-13.777A13.777,13.777,0,0,1,166.206,556.6Zm-143.453,0A13.777,13.777,0,1,1,8.976,542.826,13.777,13.777,0,0,1,22.752,556.6ZM1744.194,413.15a13.777,13.777,0,1,1-13.777-13.777,13.777,13.777,0,0,1,13.777,13.777Zm-143.453,0a13.777,13.777,0,1,1-13.777-13.777,13.777,13.777,0,0,1,13.777,13.777Zm-143.453,0a13.777,13.777,0,1,1-13.777-13.777,13.777,13.777,0,0,1,13.777,13.777Zm-143.453,0a13.777,13.777,0,1,1-13.777-13.777,13.777,13.777,0,0,1,13.777,13.777Zm-143.453,0a13.777,13.777,0,1,1-13.777-13.777,13.777,13.777,0,0,1,13.777,13.777Zm-143.453,0a13.777,13.777,0,1,1-13.777-13.777,13.777,13.777,0,0,1,13.777,13.777Zm-143.453,0A13.777,13.777,0,1,1,869.7,399.372a13.777,13.777,0,0,1,13.777,13.777Zm-143.453,0a13.777,13.777,0,1,1-13.777-13.777A13.777,13.777,0,0,1,740.02,413.15Zm-143.453,0a13.777,13.777,0,1,1-13.777-13.777,13.777,13.777,0,0,1,13.777,13.777Zm-143.453,0a13.777,13.777,0,1,1-13.777-13.777,13.777,13.777,0,0,1,13.777,13.777Zm-143.453,0a13.777,13.777,0,1,1-13.777-13.777,13.777,13.777,0,0,1,13.777,13.777Zm-143.453,0a13.777,13.777,0,1,1-13.777-13.777,13.777,13.777,0,0,1,13.777,13.777Zm-143.453,0A13.777,13.777,0,1,1,8.976,399.372,13.777,13.777,0,0,1,22.752,413.15ZM1744.194,269.7a13.777,13.777,0,1,1-13.777-13.777,13.777,13.777,0,0,1,13.777,13.777Zm-143.453,0a13.777,13.777,0,1,1-13.776-13.777A13.777,13.777,0,0,1,1600.74,269.7Zm-143.453,0a13.777,13.777,0,1,1-13.777-13.777A13.777,13.777,0,0,1,1457.287,269.7Zm-143.453,0a13.777,13.777,0,1,1-13.777-13.777,13.777,13.777,0,0,1,13.777,13.777Zm-143.453,0a13.777,13.777,0,1,1-13.777-13.777A13.777,13.777,0,0,1,1170.38,269.7Zm-143.453,0a13.777,13.777,0,1,1-13.777-13.777,13.777,13.777,0,0,1,13.777,13.777Zm-143.453,0A13.777,13.777,0,1,1,869.7,255.919,13.777,13.777,0,0,1,883.473,269.7Zm-143.453,0a13.777,13.777,0,1,1-13.777-13.777A13.777,13.777,0,0,1,740.02,269.7Zm-143.453,0a13.777,13.777,0,1,1-13.777-13.777A13.777,13.777,0,0,1,596.566,269.7Zm-143.453,0a13.777,13.777,0,1,1-13.777-13.777A13.777,13.777,0,0,1,453.113,269.7Zm-143.453,0a13.777,13.777,0,1,1-13.777-13.777A13.777,13.777,0,0,1,309.659,269.7Zm-143.453,0a13.777,13.777,0,1,1-13.776-13.777A13.777,13.777,0,0,1,166.206,269.7Zm-143.453,0A13.777,13.777,0,1,1,8.976,255.919,13.777,13.777,0,0,1,22.752,269.7ZM1744.194,126.243a13.777,13.777,0,1,1-13.777-13.777A13.777,13.777,0,0,1,1744.194,126.243Zm-143.453,0a13.777,13.777,0,1,1-13.777-13.777,13.777,13.777,0,0,1,13.777,13.777Zm-143.453,0a13.777,13.777,0,1,1-13.777-13.777,13.777,13.777,0,0,1,13.777,13.777Zm-143.453,0a13.777,13.777,0,1,1-13.777-13.777,13.777,13.777,0,0,1,13.777,13.777Zm-143.453,0a13.777,13.777,0,1,1-13.777-13.777,13.777,13.777,0,0,1,13.777,13.777Zm-143.453,0a13.777,13.777,0,1,1-13.777-13.777,13.777,13.777,0,0,1,13.777,13.777Zm-143.453,0A13.777,13.777,0,1,1,869.7,112.465a13.777,13.777,0,0,1,13.777,13.777Zm-143.453,0a13.777,13.777,0,1,1-13.777-13.777,13.777,13.777,0,0,1,13.777,13.777Zm-143.453,0a13.777,13.777,0,1,1-13.777-13.777,13.777,13.777,0,0,1,13.777,13.777Zm-143.453,0a13.777,13.777,0,1,1-13.777-13.777,13.777,13.777,0,0,1,13.777,13.777Zm-143.453,0a13.777,13.777,0,1,1-13.777-13.777,13.777,13.777,0,0,1,13.777,13.777Zm-143.453,0a13.777,13.777,0,1,1-13.777-13.777,13.777,13.777,0,0,1,13.777,13.777Zm-143.453,0A13.777,13.777,0,1,1,8.976,112.465a13.777,13.777,0,0,1,13.776,13.777ZM1744.194-17.211a13.777,13.777,0,0,1-13.778,13.777,13.777,13.777,0,0,1-13.777-13.777,13.777,13.777,0,0,1,13.778-13.777,13.777,13.777,0,0,1,13.777,13.777Zm-143.453,0a13.777,13.777,0,0,1-13.778,13.777,13.777,13.777,0,0,1-13.777-13.777,13.777,13.777,0,0,1,13.778-13.778,13.777,13.777,0,0,1,13.776,13.777Zm-143.453,0a13.777,13.777,0,0,1-13.778,13.777,13.777,13.777,0,0,1-13.777-13.777,13.777,13.777,0,0,1,13.778-13.777A13.777,13.777,0,0,1,1457.287-17.211Zm-143.453,0a13.777,13.777,0,0,1-13.778,13.777,13.777,13.777,0,0,1-13.777-13.777,13.777,13.777,0,0,1,13.778-13.778,13.777,13.777,0,0,1,13.777,13.777Zm-143.453,0A13.777,13.777,0,0,1,1156.6-3.434a13.777,13.777,0,0,1-13.777-13.777A13.777,13.777,0,0,1,1156.6-30.988,13.777,13.777,0,0,1,1170.38-17.211Zm-143.453,0a13.777,13.777,0,0,1-13.778,13.777,13.777,13.777,0,0,1-13.777-13.777,13.777,13.777,0,0,1,13.778-13.778,13.777,13.777,0,0,1,13.776,13.777Zm-143.453,0A13.777,13.777,0,0,1,869.7-3.434a13.777,13.777,0,0,1-13.777-13.777A13.777,13.777,0,0,1,869.7-30.988,13.777,13.777,0,0,1,883.473-17.211Zm-143.453,0A13.777,13.777,0,0,1,726.242-3.434a13.777,13.777,0,0,1-13.777-13.777,13.777,13.777,0,0,1,13.778-13.777A13.777,13.777,0,0,1,740.02-17.211Zm-143.453,0A13.777,13.777,0,0,1,582.788-3.434a13.777,13.777,0,0,1-13.777-13.777,13.777,13.777,0,0,1,13.778-13.777A13.777,13.777,0,0,1,596.566-17.211Zm-143.453,0A13.777,13.777,0,0,1,439.335-3.434a13.777,13.777,0,0,1-13.777-13.777,13.777,13.777,0,0,1,13.778-13.777,13.777,13.777,0,0,1,13.777,13.777Zm-143.453,0A13.777,13.777,0,0,1,295.882-3.434,13.777,13.777,0,0,1,282.1-17.211a13.777,13.777,0,0,1,13.778-13.778,13.777,13.777,0,0,1,13.777,13.777Zm-143.453,0A13.777,13.777,0,0,1,152.428-3.434a13.777,13.777,0,0,1-13.777-13.777,13.777,13.777,0,0,1,13.778-13.777,13.777,13.777,0,0,1,13.776,13.777Zm-143.453,0A13.777,13.777,0,0,1,8.975-3.434,13.777,13.777,0,0,1-4.8-17.21,13.777,13.777,0,0,1,8.976-30.988,13.777,13.777,0,0,1,22.752-17.212ZM1744.194-160.664a13.777,13.777,0,0,1-13.778,13.777,13.777,13.777,0,0,1-13.777-13.777,13.777,13.777,0,0,1,13.778-13.777A13.777,13.777,0,0,1,1744.194-160.664Zm-143.453,0a13.777,13.777,0,0,1-13.778,13.777,13.777,13.777,0,0,1-13.777-13.777,13.777,13.777,0,0,1,13.778-13.778,13.777,13.777,0,0,1,13.776,13.777Zm-143.453,0a13.777,13.777,0,0,1-13.778,13.777,13.777,13.777,0,0,1-13.777-13.777,13.777,13.777,0,0,1,13.778-13.777,13.777,13.777,0,0,1,13.777,13.777Zm-143.453,0a13.777,13.777,0,0,1-13.778,13.777,13.777,13.777,0,0,1-13.777-13.777,13.777,13.777,0,0,1,13.778-13.778,13.777,13.777,0,0,1,13.777,13.777Zm-143.453,0a13.777,13.777,0,0,1-13.778,13.777,13.777,13.777,0,0,1-13.777-13.777,13.777,13.777,0,0,1,13.778-13.777,13.777,13.777,0,0,1,13.777,13.777Zm-143.453,0a13.777,13.777,0,0,1-13.778,13.777,13.777,13.777,0,0,1-13.777-13.777,13.777,13.777,0,0,1,13.778-13.778,13.777,13.777,0,0,1,13.776,13.777Zm-143.453,0A13.777,13.777,0,0,1,869.7-146.887a13.777,13.777,0,0,1-13.777-13.777A13.777,13.777,0,0,1,869.7-174.442a13.777,13.777,0,0,1,13.777,13.777Zm-143.453,0a13.777,13.777,0,0,1-13.778,13.777,13.777,13.777,0,0,1-13.777-13.777,13.777,13.777,0,0,1,13.778-13.777,13.777,13.777,0,0,1,13.777,13.777Zm-143.453,0a13.777,13.777,0,0,1-13.778,13.777,13.777,13.777,0,0,1-13.777-13.777,13.777,13.777,0,0,1,13.778-13.777,13.777,13.777,0,0,1,13.777,13.777Zm-143.453,0a13.777,13.777,0,0,1-13.778,13.777,13.777,13.777,0,0,1-13.777-13.777,13.777,13.777,0,0,1,13.778-13.777,13.777,13.777,0,0,1,13.777,13.777Zm-143.453,0a13.777,13.777,0,0,1-13.778,13.777A13.777,13.777,0,0,1,282.1-160.664a13.777,13.777,0,0,1,13.778-13.778,13.777,13.777,0,0,1,13.776,13.777Zm-143.453,0a13.777,13.777,0,0,1-13.778,13.777,13.777,13.777,0,0,1-13.777-13.777,13.777,13.777,0,0,1,13.778-13.778,13.777,13.777,0,0,1,13.776,13.777Zm-143.453,0A13.777,13.777,0,0,1,8.975-146.887,13.777,13.777,0,0,1-4.8-160.664,13.777,13.777,0,0,1,8.976-174.442a13.777,13.777,0,0,1,13.776,13.776ZM1744.194-304.118a13.777,13.777,0,0,1-13.778,13.777,13.777,13.777,0,0,1-13.777-13.777,13.777,13.777,0,0,1,13.778-13.777,13.777,13.777,0,0,1,13.777,13.777Zm-143.453,0a13.777,13.777,0,0,1-13.778,13.777,13.777,13.777,0,0,1-13.777-13.777,13.777,13.777,0,0,1,13.778-13.778,13.777,13.777,0,0,1,13.776,13.777Zm-143.453,0a13.777,13.777,0,0,1-13.778,13.777,13.777,13.777,0,0,1-13.777-13.777A13.777,13.777,0,0,1,1443.51-317.9,13.777,13.777,0,0,1,1457.287-304.118Zm-143.453,0a13.777,13.777,0,0,1-13.778,13.777,13.777,13.777,0,0,1-13.777-13.777,13.777,13.777,0,0,1,13.778-13.778,13.777,13.777,0,0,1,13.776,13.777Zm-143.453,0a13.777,13.777,0,0,1-13.778,13.777,13.777,13.777,0,0,1-13.777-13.777A13.777,13.777,0,0,1,1156.6-317.9,13.777,13.777,0,0,1,1170.38-304.118Zm-143.453,0a13.777,13.777,0,0,1-13.778,13.777,13.777,13.777,0,0,1-13.777-13.777A13.777,13.777,0,0,1,1013.15-317.9a13.777,13.777,0,0,1,13.776,13.777Zm-143.453,0A13.777,13.777,0,0,1,869.7-290.341a13.777,13.777,0,0,1-13.777-13.777A13.777,13.777,0,0,1,869.7-317.9,13.777,13.777,0,0,1,883.473-304.118Zm-143.453,0a13.777,13.777,0,0,1-13.778,13.777,13.777,13.777,0,0,1-13.777-13.777A13.777,13.777,0,0,1,726.243-317.9,13.777,13.777,0,0,1,740.02-304.118Zm-143.453,0a13.777,13.777,0,0,1-13.778,13.777,13.777,13.777,0,0,1-13.777-13.777A13.777,13.777,0,0,1,582.789-317.9,13.777,13.777,0,0,1,596.566-304.118Zm-143.453,0a13.777,13.777,0,0,1-13.778,13.777,13.777,13.777,0,0,1-13.777-13.777A13.777,13.777,0,0,1,439.336-317.9a13.777,13.777,0,0,1,13.777,13.777Zm-143.453,0a13.777,13.777,0,0,1-13.778,13.777A13.777,13.777,0,0,1,282.1-304.118,13.777,13.777,0,0,1,295.883-317.9a13.777,13.777,0,0,1,13.776,13.777Zm-143.453,0a13.777,13.777,0,0,1-13.778,13.777,13.777,13.777,0,0,1-13.777-13.777A13.777,13.777,0,0,1,152.429-317.9a13.777,13.777,0,0,1,13.776,13.777Zm-143.453,0A13.777,13.777,0,0,1,8.975-290.341,13.777,13.777,0,0,1-4.8-304.117,13.777,13.777,0,0,1,8.976-317.9a13.777,13.777,0,0,1,13.776,13.776ZM1744.194-447.571a13.777,13.777,0,0,1-13.778,13.777,13.777,13.777,0,0,1-13.777-13.777,13.777,13.777,0,0,1,13.778-13.777A13.777,13.777,0,0,1,1744.194-447.571Zm-143.453,0a13.777,13.777,0,0,1-13.778,13.777,13.777,13.777,0,0,1-13.777-13.777,13.777,13.777,0,0,1,13.778-13.777A13.777,13.777,0,0,1,1600.74-447.571Zm-143.453,0a13.777,13.777,0,0,1-13.777,13.777,13.777,13.777,0,0,1-13.777-13.777,13.777,13.777,0,0,1,13.778-13.777,13.777,13.777,0,0,1,13.777,13.777Zm-143.453,0a13.777,13.777,0,0,1-13.778,13.777,13.777,13.777,0,0,1-13.777-13.777,13.777,13.777,0,0,1,13.778-13.777,13.777,13.777,0,0,1,13.777,13.777Zm-143.453,0a13.777,13.777,0,0,1-13.777,13.777,13.777,13.777,0,0,1-13.777-13.777,13.777,13.777,0,0,1,13.778-13.777A13.777,13.777,0,0,1,1170.38-447.571Zm-143.453,0a13.777,13.777,0,0,1-13.778,13.777,13.777,13.777,0,0,1-13.777-13.777,13.777,13.777,0,0,1,13.778-13.777,13.777,13.777,0,0,1,13.777,13.777Zm-143.453,0A13.777,13.777,0,0,1,869.7-433.794a13.777,13.777,0,0,1-13.777-13.777A13.777,13.777,0,0,1,869.7-461.349a13.777,13.777,0,0,1,13.777,13.778Zm-143.453,0a13.777,13.777,0,0,1-13.778,13.777,13.777,13.777,0,0,1-13.777-13.777,13.777,13.777,0,0,1,13.778-13.777A13.777,13.777,0,0,1,740.02-447.571Zm-143.453,0a13.777,13.777,0,0,1-13.778,13.777,13.777,13.777,0,0,1-13.777-13.777,13.777,13.777,0,0,1,13.778-13.777,13.777,13.777,0,0,1,13.777,13.777Zm-143.453,0a13.777,13.777,0,0,1-13.778,13.777,13.777,13.777,0,0,1-13.777-13.777,13.777,13.777,0,0,1,13.778-13.777,13.777,13.777,0,0,1,13.777,13.777Zm-143.453,0a13.777,13.777,0,0,1-13.778,13.777A13.777,13.777,0,0,1,282.1-447.571a13.777,13.777,0,0,1,13.778-13.778,13.777,13.777,0,0,1,13.776,13.777Zm-143.453,0a13.777,13.777,0,0,1-13.778,13.777,13.777,13.777,0,0,1-13.777-13.777,13.777,13.777,0,0,1,13.777-13.777,13.777,13.777,0,0,1,13.777,13.777Zm-143.453,0A13.777,13.777,0,0,1,8.975-433.794,13.777,13.777,0,0,1-4.8-447.571,13.777,13.777,0,0,1,8.976-461.348a13.777,13.777,0,0,1,13.776,13.776ZM1744.194-591.025a13.777,13.777,0,0,1-13.778,13.777,13.777,13.777,0,0,1-13.777-13.777,13.777,13.777,0,0,1,13.778-13.777A13.777,13.777,0,0,1,1744.194-591.025Zm-143.453,0a13.777,13.777,0,0,1-13.778,13.777,13.777,13.777,0,0,1-13.777-13.777,13.777,13.777,0,0,1,13.778-13.777,13.777,13.777,0,0,1,13.777,13.777Zm-143.453,0a13.777,13.777,0,0,1-13.778,13.777,13.777,13.777,0,0,1-13.777-13.777A13.777,13.777,0,0,1,1443.51-604.8,13.777,13.777,0,0,1,1457.287-591.025Zm-143.453,0a13.777,13.777,0,0,1-13.778,13.777,13.777,13.777,0,0,1-13.777-13.777,13.777,13.777,0,0,1,13.778-13.777,13.777,13.777,0,0,1,13.777,13.777Zm-143.453,0a13.777,13.777,0,0,1-13.778,13.777,13.777,13.777,0,0,1-13.777-13.777A13.777,13.777,0,0,1,1156.6-604.8,13.777,13.777,0,0,1,1170.38-591.025Zm-143.453,0a13.777,13.777,0,0,1-13.778,13.777,13.777,13.777,0,0,1-13.777-13.777A13.777,13.777,0,0,1,1013.15-604.8a13.777,13.777,0,0,1,13.777,13.777Zm-143.453,0A13.777,13.777,0,0,1,869.7-577.247a13.777,13.777,0,0,1-13.777-13.777A13.777,13.777,0,0,1,869.7-604.8,13.777,13.777,0,0,1,883.473-591.025Zm-143.453,0a13.777,13.777,0,0,1-13.778,13.777,13.777,13.777,0,0,1-13.777-13.777A13.777,13.777,0,0,1,726.243-604.8,13.777,13.777,0,0,1,740.02-591.025Zm-143.453,0a13.777,13.777,0,0,1-13.778,13.777,13.777,13.777,0,0,1-13.777-13.777A13.777,13.777,0,0,1,582.789-604.8a13.777,13.777,0,0,1,13.777,13.777Zm-143.453,0a13.777,13.777,0,0,1-13.778,13.777,13.777,13.777,0,0,1-13.777-13.777A13.777,13.777,0,0,1,439.336-604.8a13.777,13.777,0,0,1,13.777,13.778Zm-143.453,0a13.777,13.777,0,0,1-13.778,13.777A13.777,13.777,0,0,1,282.1-591.025,13.777,13.777,0,0,1,295.883-604.8a13.777,13.777,0,0,1,13.777,13.777Zm-143.453,0a13.777,13.777,0,0,1-13.778,13.777,13.777,13.777,0,0,1-13.777-13.777A13.777,13.777,0,0,1,152.429-604.8a13.777,13.777,0,0,1,13.776,13.777Zm-143.453,0A13.777,13.777,0,0,1,8.975-577.247,13.777,13.777,0,0,1-4.8-591.024,13.777,13.777,0,0,1,8.976-604.8a13.777,13.777,0,0,1,13.776,13.777Z" transform="translate(-335.65 266.908)" fill="#c4c4c4" stroke="#000" stroke-width="0" opacity="0.53"/>
      <path id="ellipse8455-2" data-name="ellipse8455" d="M1744.194,1130.417a13.777,13.777,0,1,1-13.778-13.777,13.777,13.777,0,0,1,13.778,13.777Zm-143.453,0a13.777,13.777,0,1,1-13.778-13.777,13.777,13.777,0,0,1,13.778,13.777Zm-143.453,0a13.777,13.777,0,1,1-13.778-13.777,13.777,13.777,0,0,1,13.778,13.777Zm-143.453,0a13.777,13.777,0,1,1-13.778-13.777,13.777,13.777,0,0,1,13.778,13.777Zm-143.453,0a13.777,13.777,0,1,1-13.778-13.777,13.777,13.777,0,0,1,13.778,13.777Zm-143.453,0a13.777,13.777,0,1,1-13.778-13.777,13.777,13.777,0,0,1,13.778,13.777Zm-143.453,0A13.777,13.777,0,1,1,869.7,1116.64a13.777,13.777,0,0,1,13.778,13.777Zm-143.453,0a13.777,13.777,0,1,1-13.778-13.777,13.777,13.777,0,0,1,13.778,13.777Zm-143.453,0a13.777,13.777,0,1,1-13.778-13.777,13.777,13.777,0,0,1,13.778,13.777Zm-143.453,0a13.777,13.777,0,1,1-13.778-13.777,13.777,13.777,0,0,1,13.778,13.777Zm-143.453,0a13.777,13.777,0,1,1-13.777-13.777,13.777,13.777,0,0,1,13.777,13.777Zm-143.453,0a13.777,13.777,0,1,1-13.777-13.777,13.777,13.777,0,0,1,13.777,13.777Zm-143.453,0A13.777,13.777,0,1,1,8.975,1116.64a13.777,13.777,0,0,1,13.777,13.777ZM1744.194,986.963a13.777,13.777,0,1,1-13.777-13.777,13.777,13.777,0,0,1,13.777,13.777Zm-143.453,0a13.777,13.777,0,1,1-13.777-13.777,13.777,13.777,0,0,1,13.777,13.777Zm-143.453,0a13.777,13.777,0,1,1-13.777-13.777,13.777,13.777,0,0,1,13.777,13.777Zm-143.453,0a13.777,13.777,0,1,1-13.777-13.777,13.777,13.777,0,0,1,13.777,13.777Zm-143.453,0a13.777,13.777,0,1,1-13.777-13.777,13.777,13.777,0,0,1,13.777,13.777Zm-143.453,0a13.777,13.777,0,1,1-13.777-13.777,13.777,13.777,0,0,1,13.777,13.777Zm-143.453,0A13.777,13.777,0,1,1,869.7,973.186a13.777,13.777,0,0,1,13.778,13.777Zm-143.453,0a13.777,13.777,0,1,1-13.777-13.777,13.777,13.777,0,0,1,13.777,13.777Zm-143.453,0a13.777,13.777,0,1,1-13.777-13.777,13.777,13.777,0,0,1,13.777,13.777Zm-143.453,0a13.777,13.777,0,1,1-13.778-13.777,13.777,13.777,0,0,1,13.778,13.777Zm-143.453,0a13.777,13.777,0,1,1-13.777-13.777,13.777,13.777,0,0,1,13.777,13.777Zm-143.453,0a13.777,13.777,0,1,1-13.777-13.777,13.777,13.777,0,0,1,13.777,13.777Zm-143.454,0A13.777,13.777,0,1,1,8.975,973.186a13.777,13.777,0,0,1,13.777,13.777ZM1744.194,843.51a13.777,13.777,0,1,1-13.777-13.777,13.777,13.777,0,0,1,13.777,13.777Zm-143.453,0a13.777,13.777,0,1,1-13.777-13.777,13.777,13.777,0,0,1,13.777,13.777Zm-143.453,0a13.777,13.777,0,1,1-13.777-13.777,13.777,13.777,0,0,1,13.777,13.777Zm-143.453,0a13.777,13.777,0,1,1-13.777-13.777,13.777,13.777,0,0,1,13.777,13.777Zm-143.453,0a13.777,13.777,0,1,1-13.777-13.777,13.777,13.777,0,0,1,13.777,13.777Zm-143.453,0a13.777,13.777,0,1,1-13.777-13.777,13.777,13.777,0,0,1,13.777,13.777Zm-143.453,0A13.777,13.777,0,1,1,869.7,829.733a13.777,13.777,0,0,1,13.777,13.777Zm-143.453,0a13.777,13.777,0,1,1-13.777-13.777A13.777,13.777,0,0,1,740.02,843.51Zm-143.453,0a13.777,13.777,0,1,1-13.777-13.777,13.777,13.777,0,0,1,13.777,13.777Zm-143.453,0a13.777,13.777,0,1,1-13.777-13.777,13.777,13.777,0,0,1,13.777,13.777Zm-143.453,0a13.777,13.777,0,1,1-13.777-13.777A13.777,13.777,0,0,1,309.659,843.51Zm-143.453,0a13.777,13.777,0,1,1-13.777-13.777,13.777,13.777,0,0,1,13.777,13.777Zm-143.453,0A13.777,13.777,0,1,1,8.976,829.733,13.777,13.777,0,0,1,22.752,843.51ZM1744.194,700.056a13.777,13.777,0,1,1-13.777-13.777,13.777,13.777,0,0,1,13.777,13.777Zm-143.453,0a13.777,13.777,0,1,1-13.777-13.777,13.777,13.777,0,0,1,13.777,13.777Zm-143.453,0a13.777,13.777,0,1,1-13.777-13.777A13.777,13.777,0,0,1,1457.287,700.056Zm-143.453,0a13.777,13.777,0,1,1-13.777-13.777,13.777,13.777,0,0,1,13.777,13.777Zm-143.453,0a13.777,13.777,0,1,1-13.777-13.777A13.777,13.777,0,0,1,1170.38,700.056Zm-143.453,0a13.777,13.777,0,1,1-13.777-13.777,13.777,13.777,0,0,1,13.777,13.777Zm-143.453,0A13.777,13.777,0,1,1,869.7,686.279,13.777,13.777,0,0,1,883.473,700.056Zm-143.453,0a13.777,13.777,0,1,1-13.777-13.777A13.777,13.777,0,0,1,740.02,700.056Zm-143.453,0a13.777,13.777,0,1,1-13.777-13.777,13.777,13.777,0,0,1,13.777,13.777Zm-143.453,0a13.777,13.777,0,1,1-13.777-13.777,13.777,13.777,0,0,1,13.777,13.777Zm-143.453,0a13.777,13.777,0,1,1-13.776-13.777,13.777,13.777,0,0,1,13.776,13.777Zm-143.453,0a13.777,13.777,0,1,1-13.777-13.777,13.777,13.777,0,0,1,13.777,13.777Zm-143.453,0A13.777,13.777,0,1,1,8.976,686.279a13.777,13.777,0,0,1,13.776,13.777ZM1744.194,556.6a13.777,13.777,0,1,1-13.777-13.777,13.777,13.777,0,0,1,13.777,13.777Zm-143.453,0a13.777,13.777,0,1,1-13.777-13.777A13.777,13.777,0,0,1,1600.74,556.6Zm-143.453,0a13.777,13.777,0,1,1-13.777-13.777A13.777,13.777,0,0,1,1457.287,556.6Zm-143.453,0a13.777,13.777,0,1,1-13.777-13.777,13.777,13.777,0,0,1,13.777,13.777Zm-143.453,0a13.777,13.777,0,1,1-13.777-13.777A13.777,13.777,0,0,1,1170.38,556.6Zm-143.453,0a13.777,13.777,0,1,1-13.777-13.777,13.777,13.777,0,0,1,13.777,13.777Zm-143.453,0A13.777,13.777,0,1,1,869.7,542.826,13.777,13.777,0,0,1,883.473,556.6Zm-143.453,0a13.777,13.777,0,1,1-13.777-13.777A13.777,13.777,0,0,1,740.02,556.6Zm-143.453,0a13.777,13.777,0,1,1-13.777-13.777A13.777,13.777,0,0,1,596.566,556.6Zm-143.453,0a13.777,13.777,0,1,1-13.777-13.777A13.777,13.777,0,0,1,453.113,556.6Zm-143.453,0a13.777,13.777,0,1,1-13.777-13.777A13.777,13.777,0,0,1,309.659,556.6Zm-143.453,0a13.777,13.777,0,1,1-13.776-13.777A13.777,13.777,0,0,1,166.206,556.6Zm-143.453,0A13.777,13.777,0,1,1,8.976,542.826,13.777,13.777,0,0,1,22.752,556.6ZM1744.194,413.15a13.777,13.777,0,1,1-13.777-13.777,13.777,13.777,0,0,1,13.777,13.777Zm-143.453,0a13.777,13.777,0,1,1-13.777-13.777,13.777,13.777,0,0,1,13.777,13.777Zm-143.453,0a13.777,13.777,0,1,1-13.777-13.777,13.777,13.777,0,0,1,13.777,13.777Zm-143.453,0a13.777,13.777,0,1,1-13.777-13.777,13.777,13.777,0,0,1,13.777,13.777Zm-143.453,0a13.777,13.777,0,1,1-13.777-13.777,13.777,13.777,0,0,1,13.777,13.777Zm-143.453,0a13.777,13.777,0,1,1-13.777-13.777,13.777,13.777,0,0,1,13.777,13.777Zm-143.453,0A13.777,13.777,0,1,1,869.7,399.372a13.777,13.777,0,0,1,13.777,13.777Zm-143.453,0a13.777,13.777,0,1,1-13.777-13.777A13.777,13.777,0,0,1,740.02,413.15Zm-143.453,0a13.777,13.777,0,1,1-13.777-13.777,13.777,13.777,0,0,1,13.777,13.777Zm-143.453,0a13.777,13.777,0,1,1-13.777-13.777,13.777,13.777,0,0,1,13.777,13.777Zm-143.453,0a13.777,13.777,0,1,1-13.777-13.777,13.777,13.777,0,0,1,13.777,13.777Zm-143.453,0a13.777,13.777,0,1,1-13.777-13.777,13.777,13.777,0,0,1,13.777,13.777Zm-143.453,0A13.777,13.777,0,1,1,8.976,399.372,13.777,13.777,0,0,1,22.752,413.15ZM1744.194,269.7a13.777,13.777,0,1,1-13.777-13.777,13.777,13.777,0,0,1,13.777,13.777Zm-143.453,0a13.777,13.777,0,1,1-13.776-13.777A13.777,13.777,0,0,1,1600.74,269.7Zm-143.453,0a13.777,13.777,0,1,1-13.777-13.777A13.777,13.777,0,0,1,1457.287,269.7Zm-143.453,0a13.777,13.777,0,1,1-13.777-13.777,13.777,13.777,0,0,1,13.777,13.777Zm-143.453,0a13.777,13.777,0,1,1-13.777-13.777A13.777,13.777,0,0,1,1170.38,269.7Zm-143.453,0a13.777,13.777,0,1,1-13.777-13.777,13.777,13.777,0,0,1,13.777,13.777Zm-143.453,0A13.777,13.777,0,1,1,869.7,255.919,13.777,13.777,0,0,1,883.473,269.7Zm-143.453,0a13.777,13.777,0,1,1-13.777-13.777A13.777,13.777,0,0,1,740.02,269.7Zm-143.453,0a13.777,13.777,0,1,1-13.777-13.777A13.777,13.777,0,0,1,596.566,269.7Zm-143.453,0a13.777,13.777,0,1,1-13.777-13.777A13.777,13.777,0,0,1,453.113,269.7Zm-143.453,0a13.777,13.777,0,1,1-13.777-13.777A13.777,13.777,0,0,1,309.659,269.7Zm-143.453,0a13.777,13.777,0,1,1-13.776-13.777A13.777,13.777,0,0,1,166.206,269.7Zm-143.453,0A13.777,13.777,0,1,1,8.976,255.919,13.777,13.777,0,0,1,22.752,269.7ZM1744.194,126.243a13.777,13.777,0,1,1-13.777-13.777A13.777,13.777,0,0,1,1744.194,126.243Zm-143.453,0a13.777,13.777,0,1,1-13.777-13.777,13.777,13.777,0,0,1,13.777,13.777Zm-143.453,0a13.777,13.777,0,1,1-13.777-13.777,13.777,13.777,0,0,1,13.777,13.777Zm-143.453,0a13.777,13.777,0,1,1-13.777-13.777,13.777,13.777,0,0,1,13.777,13.777Zm-143.453,0a13.777,13.777,0,1,1-13.777-13.777,13.777,13.777,0,0,1,13.777,13.777Zm-143.453,0a13.777,13.777,0,1,1-13.777-13.777,13.777,13.777,0,0,1,13.777,13.777Zm-143.453,0A13.777,13.777,0,1,1,869.7,112.465a13.777,13.777,0,0,1,13.777,13.777Zm-143.453,0a13.777,13.777,0,1,1-13.777-13.777,13.777,13.777,0,0,1,13.777,13.777Zm-143.453,0a13.777,13.777,0,1,1-13.777-13.777,13.777,13.777,0,0,1,13.777,13.777Zm-143.453,0a13.777,13.777,0,1,1-13.777-13.777,13.777,13.777,0,0,1,13.777,13.777Zm-143.453,0a13.777,13.777,0,1,1-13.777-13.777,13.777,13.777,0,0,1,13.777,13.777Zm-143.453,0a13.777,13.777,0,1,1-13.777-13.777,13.777,13.777,0,0,1,13.777,13.777Zm-143.453,0A13.777,13.777,0,1,1,8.976,112.465a13.777,13.777,0,0,1,13.776,13.777ZM1744.194-17.211a13.777,13.777,0,0,1-13.778,13.777,13.777,13.777,0,0,1-13.777-13.777,13.777,13.777,0,0,1,13.778-13.777,13.777,13.777,0,0,1,13.777,13.777Zm-143.453,0a13.777,13.777,0,0,1-13.778,13.777,13.777,13.777,0,0,1-13.777-13.777,13.777,13.777,0,0,1,13.778-13.778,13.777,13.777,0,0,1,13.776,13.777Zm-143.453,0a13.777,13.777,0,0,1-13.778,13.777,13.777,13.777,0,0,1-13.777-13.777,13.777,13.777,0,0,1,13.778-13.777A13.777,13.777,0,0,1,1457.287-17.211Zm-143.453,0a13.777,13.777,0,0,1-13.778,13.777,13.777,13.777,0,0,1-13.777-13.777,13.777,13.777,0,0,1,13.778-13.778,13.777,13.777,0,0,1,13.777,13.777Zm-143.453,0A13.777,13.777,0,0,1,1156.6-3.434a13.777,13.777,0,0,1-13.777-13.777A13.777,13.777,0,0,1,1156.6-30.988,13.777,13.777,0,0,1,1170.38-17.211Zm-143.453,0a13.777,13.777,0,0,1-13.778,13.777,13.777,13.777,0,0,1-13.777-13.777,13.777,13.777,0,0,1,13.778-13.778,13.777,13.777,0,0,1,13.776,13.777Zm-143.453,0A13.777,13.777,0,0,1,869.7-3.434a13.777,13.777,0,0,1-13.777-13.777A13.777,13.777,0,0,1,869.7-30.988,13.777,13.777,0,0,1,883.473-17.211Zm-143.453,0A13.777,13.777,0,0,1,726.242-3.434a13.777,13.777,0,0,1-13.777-13.777,13.777,13.777,0,0,1,13.778-13.777A13.777,13.777,0,0,1,740.02-17.211Zm-143.453,0A13.777,13.777,0,0,1,582.788-3.434a13.777,13.777,0,0,1-13.777-13.777,13.777,13.777,0,0,1,13.778-13.777A13.777,13.777,0,0,1,596.566-17.211Zm-143.453,0A13.777,13.777,0,0,1,439.335-3.434a13.777,13.777,0,0,1-13.777-13.777,13.777,13.777,0,0,1,13.778-13.777,13.777,13.777,0,0,1,13.777,13.777Zm-143.453,0A13.777,13.777,0,0,1,295.882-3.434,13.777,13.777,0,0,1,282.1-17.211a13.777,13.777,0,0,1,13.778-13.778,13.777,13.777,0,0,1,13.777,13.777Zm-143.453,0A13.777,13.777,0,0,1,152.428-3.434a13.777,13.777,0,0,1-13.777-13.777,13.777,13.777,0,0,1,13.778-13.777,13.777,13.777,0,0,1,13.776,13.777Zm-143.453,0A13.777,13.777,0,0,1,8.975-3.434,13.777,13.777,0,0,1-4.8-17.21,13.777,13.777,0,0,1,8.976-30.988,13.777,13.777,0,0,1,22.752-17.212ZM1744.194-160.664a13.777,13.777,0,0,1-13.778,13.777,13.777,13.777,0,0,1-13.777-13.777,13.777,13.777,0,0,1,13.778-13.777A13.777,13.777,0,0,1,1744.194-160.664Zm-143.453,0a13.777,13.777,0,0,1-13.778,13.777,13.777,13.777,0,0,1-13.777-13.777,13.777,13.777,0,0,1,13.778-13.778,13.777,13.777,0,0,1,13.776,13.777Zm-143.453,0a13.777,13.777,0,0,1-13.778,13.777,13.777,13.777,0,0,1-13.777-13.777,13.777,13.777,0,0,1,13.778-13.777,13.777,13.777,0,0,1,13.777,13.777Zm-143.453,0a13.777,13.777,0,0,1-13.778,13.777,13.777,13.777,0,0,1-13.777-13.777,13.777,13.777,0,0,1,13.778-13.778,13.777,13.777,0,0,1,13.777,13.777Zm-143.453,0a13.777,13.777,0,0,1-13.778,13.777,13.777,13.777,0,0,1-13.777-13.777,13.777,13.777,0,0,1,13.778-13.777,13.777,13.777,0,0,1,13.777,13.777Zm-143.453,0a13.777,13.777,0,0,1-13.778,13.777,13.777,13.777,0,0,1-13.777-13.777,13.777,13.777,0,0,1,13.778-13.778,13.777,13.777,0,0,1,13.776,13.777Zm-143.453,0A13.777,13.777,0,0,1,869.7-146.887a13.777,13.777,0,0,1-13.777-13.777A13.777,13.777,0,0,1,869.7-174.442a13.777,13.777,0,0,1,13.777,13.777Zm-143.453,0a13.777,13.777,0,0,1-13.778,13.777,13.777,13.777,0,0,1-13.777-13.777,13.777,13.777,0,0,1,13.778-13.777,13.777,13.777,0,0,1,13.777,13.777Zm-143.453,0a13.777,13.777,0,0,1-13.778,13.777,13.777,13.777,0,0,1-13.777-13.777,13.777,13.777,0,0,1,13.778-13.777,13.777,13.777,0,0,1,13.777,13.777Zm-143.453,0a13.777,13.777,0,0,1-13.778,13.777,13.777,13.777,0,0,1-13.777-13.777,13.777,13.777,0,0,1,13.778-13.777,13.777,13.777,0,0,1,13.777,13.777Zm-143.453,0a13.777,13.777,0,0,1-13.778,13.777A13.777,13.777,0,0,1,282.1-160.664a13.777,13.777,0,0,1,13.778-13.778,13.777,13.777,0,0,1,13.776,13.777Zm-143.453,0a13.777,13.777,0,0,1-13.778,13.777,13.777,13.777,0,0,1-13.777-13.777,13.777,13.777,0,0,1,13.778-13.778,13.777,13.777,0,0,1,13.776,13.777Zm-143.453,0A13.777,13.777,0,0,1,8.975-146.887,13.777,13.777,0,0,1-4.8-160.664,13.777,13.777,0,0,1,8.976-174.442a13.777,13.777,0,0,1,13.776,13.776ZM1744.194-304.118a13.777,13.777,0,0,1-13.778,13.777,13.777,13.777,0,0,1-13.777-13.777,13.777,13.777,0,0,1,13.778-13.777,13.777,13.777,0,0,1,13.777,13.777Zm-143.453,0a13.777,13.777,0,0,1-13.778,13.777,13.777,13.777,0,0,1-13.777-13.777,13.777,13.777,0,0,1,13.778-13.778,13.777,13.777,0,0,1,13.776,13.777Zm-143.453,0a13.777,13.777,0,0,1-13.778,13.777,13.777,13.777,0,0,1-13.777-13.777A13.777,13.777,0,0,1,1443.51-317.9,13.777,13.777,0,0,1,1457.287-304.118Zm-143.453,0a13.777,13.777,0,0,1-13.778,13.777,13.777,13.777,0,0,1-13.777-13.777,13.777,13.777,0,0,1,13.778-13.778,13.777,13.777,0,0,1,13.776,13.777Zm-143.453,0a13.777,13.777,0,0,1-13.778,13.777,13.777,13.777,0,0,1-13.777-13.777A13.777,13.777,0,0,1,1156.6-317.9,13.777,13.777,0,0,1,1170.38-304.118Zm-143.453,0a13.777,13.777,0,0,1-13.778,13.777,13.777,13.777,0,0,1-13.777-13.777A13.777,13.777,0,0,1,1013.15-317.9a13.777,13.777,0,0,1,13.776,13.777Zm-143.453,0A13.777,13.777,0,0,1,869.7-290.341a13.777,13.777,0,0,1-13.777-13.777A13.777,13.777,0,0,1,869.7-317.9,13.777,13.777,0,0,1,883.473-304.118Zm-143.453,0a13.777,13.777,0,0,1-13.778,13.777,13.777,13.777,0,0,1-13.777-13.777A13.777,13.777,0,0,1,726.243-317.9,13.777,13.777,0,0,1,740.02-304.118Zm-143.453,0a13.777,13.777,0,0,1-13.778,13.777,13.777,13.777,0,0,1-13.777-13.777A13.777,13.777,0,0,1,582.789-317.9,13.777,13.777,0,0,1,596.566-304.118Zm-143.453,0a13.777,13.777,0,0,1-13.778,13.777,13.777,13.777,0,0,1-13.777-13.777A13.777,13.777,0,0,1,439.336-317.9a13.777,13.777,0,0,1,13.777,13.777Zm-143.453,0a13.777,13.777,0,0,1-13.778,13.777A13.777,13.777,0,0,1,282.1-304.118,13.777,13.777,0,0,1,295.883-317.9a13.777,13.777,0,0,1,13.776,13.777Zm-143.453,0a13.777,13.777,0,0,1-13.778,13.777,13.777,13.777,0,0,1-13.777-13.777A13.777,13.777,0,0,1,152.429-317.9a13.777,13.777,0,0,1,13.776,13.777Zm-143.453,0A13.777,13.777,0,0,1,8.975-290.341,13.777,13.777,0,0,1-4.8-304.117,13.777,13.777,0,0,1,8.976-317.9a13.777,13.777,0,0,1,13.776,13.776ZM1744.194-447.571a13.777,13.777,0,0,1-13.778,13.777,13.777,13.777,0,0,1-13.777-13.777,13.777,13.777,0,0,1,13.778-13.777A13.777,13.777,0,0,1,1744.194-447.571Zm-143.453,0a13.777,13.777,0,0,1-13.778,13.777,13.777,13.777,0,0,1-13.777-13.777,13.777,13.777,0,0,1,13.778-13.777A13.777,13.777,0,0,1,1600.74-447.571Zm-143.453,0a13.777,13.777,0,0,1-13.777,13.777,13.777,13.777,0,0,1-13.777-13.777,13.777,13.777,0,0,1,13.778-13.777,13.777,13.777,0,0,1,13.777,13.777Zm-143.453,0a13.777,13.777,0,0,1-13.778,13.777,13.777,13.777,0,0,1-13.777-13.777,13.777,13.777,0,0,1,13.778-13.777,13.777,13.777,0,0,1,13.777,13.777Zm-143.453,0a13.777,13.777,0,0,1-13.777,13.777,13.777,13.777,0,0,1-13.777-13.777,13.777,13.777,0,0,1,13.778-13.777A13.777,13.777,0,0,1,1170.38-447.571Zm-143.453,0a13.777,13.777,0,0,1-13.778,13.777,13.777,13.777,0,0,1-13.777-13.777,13.777,13.777,0,0,1,13.778-13.777,13.777,13.777,0,0,1,13.777,13.777Zm-143.453,0A13.777,13.777,0,0,1,869.7-433.794a13.777,13.777,0,0,1-13.777-13.777A13.777,13.777,0,0,1,869.7-461.349a13.777,13.777,0,0,1,13.777,13.778Zm-143.453,0a13.777,13.777,0,0,1-13.778,13.777,13.777,13.777,0,0,1-13.777-13.777,13.777,13.777,0,0,1,13.778-13.777A13.777,13.777,0,0,1,740.02-447.571Zm-143.453,0a13.777,13.777,0,0,1-13.778,13.777,13.777,13.777,0,0,1-13.777-13.777,13.777,13.777,0,0,1,13.778-13.777,13.777,13.777,0,0,1,13.777,13.777Zm-143.453,0a13.777,13.777,0,0,1-13.778,13.777,13.777,13.777,0,0,1-13.777-13.777,13.777,13.777,0,0,1,13.778-13.777,13.777,13.777,0,0,1,13.777,13.777Zm-143.453,0a13.777,13.777,0,0,1-13.778,13.777A13.777,13.777,0,0,1,282.1-447.571a13.777,13.777,0,0,1,13.778-13.778,13.777,13.777,0,0,1,13.776,13.777Zm-143.453,0a13.777,13.777,0,0,1-13.778,13.777,13.777,13.777,0,0,1-13.777-13.777,13.777,13.777,0,0,1,13.777-13.777,13.777,13.777,0,0,1,13.777,13.777Zm-143.453,0A13.777,13.777,0,0,1,8.975-433.794,13.777,13.777,0,0,1-4.8-447.571,13.777,13.777,0,0,1,8.976-461.348a13.777,13.777,0,0,1,13.776,13.776ZM1744.194-591.025a13.777,13.777,0,0,1-13.778,13.777,13.777,13.777,0,0,1-13.777-13.777,13.777,13.777,0,0,1,13.778-13.777A13.777,13.777,0,0,1,1744.194-591.025Zm-143.453,0a13.777,13.777,0,0,1-13.778,13.777,13.777,13.777,0,0,1-13.777-13.777,13.777,13.777,0,0,1,13.778-13.777,13.777,13.777,0,0,1,13.777,13.777Zm-143.453,0a13.777,13.777,0,0,1-13.778,13.777,13.777,13.777,0,0,1-13.777-13.777A13.777,13.777,0,0,1,1443.51-604.8,13.777,13.777,0,0,1,1457.287-591.025Zm-143.453,0a13.777,13.777,0,0,1-13.778,13.777,13.777,13.777,0,0,1-13.777-13.777,13.777,13.777,0,0,1,13.778-13.777,13.777,13.777,0,0,1,13.777,13.777Zm-143.453,0a13.777,13.777,0,0,1-13.778,13.777,13.777,13.777,0,0,1-13.777-13.777A13.777,13.777,0,0,1,1156.6-604.8,13.777,13.777,0,0,1,1170.38-591.025Zm-143.453,0a13.777,13.777,0,0,1-13.778,13.777,13.777,13.777,0,0,1-13.777-13.777A13.777,13.777,0,0,1,1013.15-604.8a13.777,13.777,0,0,1,13.777,13.777Zm-143.453,0A13.777,13.777,0,0,1,869.7-577.247a13.777,13.777,0,0,1-13.777-13.777A13.777,13.777,0,0,1,869.7-604.8,13.777,13.777,0,0,1,883.473-591.025Zm-143.453,0a13.777,13.777,0,0,1-13.778,13.777,13.777,13.777,0,0,1-13.777-13.777A13.777,13.777,0,0,1,726.243-604.8,13.777,13.777,0,0,1,740.02-591.025Zm-143.453,0a13.777,13.777,0,0,1-13.778,13.777,13.777,13.777,0,0,1-13.777-13.777A13.777,13.777,0,0,1,582.789-604.8a13.777,13.777,0,0,1,13.777,13.777Zm-143.453,0a13.777,13.777,0,0,1-13.778,13.777,13.777,13.777,0,0,1-13.777-13.777A13.777,13.777,0,0,1,439.336-604.8a13.777,13.777,0,0,1,13.777,13.778Zm-143.453,0a13.777,13.777,0,0,1-13.778,13.777A13.777,13.777,0,0,1,282.1-591.025,13.777,13.777,0,0,1,295.883-604.8a13.777,13.777,0,0,1,13.777,13.777Zm-143.453,0a13.777,13.777,0,0,1-13.778,13.777,13.777,13.777,0,0,1-13.777-13.777A13.777,13.777,0,0,1,152.429-604.8a13.777,13.777,0,0,1,13.776,13.777Zm-143.453,0A13.777,13.777,0,0,1,8.975-577.247,13.777,13.777,0,0,1-4.8-591.024,13.777,13.777,0,0,1,8.976-604.8a13.777,13.777,0,0,1,13.776,13.777Z" transform="translate(-402.714 266.908)" fill="#c4c4c4" stroke="#000" stroke-width="0" opacity="0.62"/>
      <path id="ellipse8455-3" data-name="ellipse8455" d="M1744.194,1130.417a13.777,13.777,0,1,1-13.778-13.777,13.777,13.777,0,0,1,13.778,13.777Zm-143.453,0a13.777,13.777,0,1,1-13.778-13.777,13.777,13.777,0,0,1,13.778,13.777Zm-143.453,0a13.777,13.777,0,1,1-13.778-13.777,13.777,13.777,0,0,1,13.778,13.777Zm-143.453,0a13.777,13.777,0,1,1-13.778-13.777,13.777,13.777,0,0,1,13.778,13.777Zm-143.453,0a13.777,13.777,0,1,1-13.778-13.777,13.777,13.777,0,0,1,13.778,13.777Zm-143.453,0a13.777,13.777,0,1,1-13.778-13.777,13.777,13.777,0,0,1,13.778,13.777Zm-143.453,0A13.777,13.777,0,1,1,869.7,1116.64a13.777,13.777,0,0,1,13.778,13.777Zm-143.453,0a13.777,13.777,0,1,1-13.778-13.777,13.777,13.777,0,0,1,13.778,13.777Zm-143.453,0a13.777,13.777,0,1,1-13.778-13.777,13.777,13.777,0,0,1,13.778,13.777Zm-143.453,0a13.777,13.777,0,1,1-13.778-13.777,13.777,13.777,0,0,1,13.778,13.777Zm-143.453,0a13.777,13.777,0,1,1-13.777-13.777,13.777,13.777,0,0,1,13.777,13.777Zm-143.453,0a13.777,13.777,0,1,1-13.777-13.777,13.777,13.777,0,0,1,13.777,13.777Zm-143.453,0A13.777,13.777,0,1,1,8.975,1116.64a13.777,13.777,0,0,1,13.777,13.777ZM1744.194,986.963a13.777,13.777,0,1,1-13.777-13.777,13.777,13.777,0,0,1,13.777,13.777Zm-143.453,0a13.777,13.777,0,1,1-13.777-13.777,13.777,13.777,0,0,1,13.777,13.777Zm-143.453,0a13.777,13.777,0,1,1-13.777-13.777,13.777,13.777,0,0,1,13.777,13.777Zm-143.453,0a13.777,13.777,0,1,1-13.777-13.777,13.777,13.777,0,0,1,13.777,13.777Zm-143.453,0a13.777,13.777,0,1,1-13.777-13.777,13.777,13.777,0,0,1,13.777,13.777Zm-143.453,0a13.777,13.777,0,1,1-13.777-13.777,13.777,13.777,0,0,1,13.777,13.777Zm-143.453,0A13.777,13.777,0,1,1,869.7,973.186a13.777,13.777,0,0,1,13.778,13.777Zm-143.453,0a13.777,13.777,0,1,1-13.777-13.777,13.777,13.777,0,0,1,13.777,13.777Zm-143.453,0a13.777,13.777,0,1,1-13.777-13.777,13.777,13.777,0,0,1,13.777,13.777Zm-143.453,0a13.777,13.777,0,1,1-13.778-13.777,13.777,13.777,0,0,1,13.778,13.777Zm-143.453,0a13.777,13.777,0,1,1-13.777-13.777,13.777,13.777,0,0,1,13.777,13.777Zm-143.453,0a13.777,13.777,0,1,1-13.777-13.777,13.777,13.777,0,0,1,13.777,13.777Zm-143.454,0A13.777,13.777,0,1,1,8.975,973.186a13.777,13.777,0,0,1,13.777,13.777ZM1744.194,843.51a13.777,13.777,0,1,1-13.777-13.777,13.777,13.777,0,0,1,13.777,13.777Zm-143.453,0a13.777,13.777,0,1,1-13.777-13.777,13.777,13.777,0,0,1,13.777,13.777Zm-143.453,0a13.777,13.777,0,1,1-13.777-13.777,13.777,13.777,0,0,1,13.777,13.777Zm-143.453,0a13.777,13.777,0,1,1-13.777-13.777,13.777,13.777,0,0,1,13.777,13.777Zm-143.453,0a13.777,13.777,0,1,1-13.777-13.777,13.777,13.777,0,0,1,13.777,13.777Zm-143.453,0a13.777,13.777,0,1,1-13.777-13.777,13.777,13.777,0,0,1,13.777,13.777Zm-143.453,0A13.777,13.777,0,1,1,869.7,829.733a13.777,13.777,0,0,1,13.777,13.777Zm-143.453,0a13.777,13.777,0,1,1-13.777-13.777A13.777,13.777,0,0,1,740.02,843.51Zm-143.453,0a13.777,13.777,0,1,1-13.777-13.777,13.777,13.777,0,0,1,13.777,13.777Zm-143.453,0a13.777,13.777,0,1,1-13.777-13.777,13.777,13.777,0,0,1,13.777,13.777Zm-143.453,0a13.777,13.777,0,1,1-13.777-13.777A13.777,13.777,0,0,1,309.659,843.51Zm-143.453,0a13.777,13.777,0,1,1-13.777-13.777,13.777,13.777,0,0,1,13.777,13.777Zm-143.453,0A13.777,13.777,0,1,1,8.976,829.733,13.777,13.777,0,0,1,22.752,843.51ZM1744.194,700.056a13.777,13.777,0,1,1-13.777-13.777,13.777,13.777,0,0,1,13.777,13.777Zm-143.453,0a13.777,13.777,0,1,1-13.777-13.777,13.777,13.777,0,0,1,13.777,13.777Zm-143.453,0a13.777,13.777,0,1,1-13.777-13.777A13.777,13.777,0,0,1,1457.287,700.056Zm-143.453,0a13.777,13.777,0,1,1-13.777-13.777,13.777,13.777,0,0,1,13.777,13.777Zm-143.453,0a13.777,13.777,0,1,1-13.777-13.777A13.777,13.777,0,0,1,1170.38,700.056Zm-143.453,0a13.777,13.777,0,1,1-13.777-13.777,13.777,13.777,0,0,1,13.777,13.777Zm-143.453,0A13.777,13.777,0,1,1,869.7,686.279,13.777,13.777,0,0,1,883.473,700.056Zm-143.453,0a13.777,13.777,0,1,1-13.777-13.777A13.777,13.777,0,0,1,740.02,700.056Zm-143.453,0a13.777,13.777,0,1,1-13.777-13.777,13.777,13.777,0,0,1,13.777,13.777Zm-143.453,0a13.777,13.777,0,1,1-13.777-13.777,13.777,13.777,0,0,1,13.777,13.777Zm-143.453,0a13.777,13.777,0,1,1-13.776-13.777,13.777,13.777,0,0,1,13.776,13.777Zm-143.453,0a13.777,13.777,0,1,1-13.777-13.777,13.777,13.777,0,0,1,13.777,13.777Zm-143.453,0A13.777,13.777,0,1,1,8.976,686.279a13.777,13.777,0,0,1,13.776,13.777ZM1744.194,556.6a13.777,13.777,0,1,1-13.777-13.777,13.777,13.777,0,0,1,13.777,13.777Zm-143.453,0a13.777,13.777,0,1,1-13.777-13.777A13.777,13.777,0,0,1,1600.74,556.6Zm-143.453,0a13.777,13.777,0,1,1-13.777-13.777A13.777,13.777,0,0,1,1457.287,556.6Zm-143.453,0a13.777,13.777,0,1,1-13.777-13.777,13.777,13.777,0,0,1,13.777,13.777Zm-143.453,0a13.777,13.777,0,1,1-13.777-13.777A13.777,13.777,0,0,1,1170.38,556.6Zm-143.453,0a13.777,13.777,0,1,1-13.777-13.777,13.777,13.777,0,0,1,13.777,13.777Zm-143.453,0A13.777,13.777,0,1,1,869.7,542.826,13.777,13.777,0,0,1,883.473,556.6Zm-143.453,0a13.777,13.777,0,1,1-13.777-13.777A13.777,13.777,0,0,1,740.02,556.6Zm-143.453,0a13.777,13.777,0,1,1-13.777-13.777A13.777,13.777,0,0,1,596.566,556.6Zm-143.453,0a13.777,13.777,0,1,1-13.777-13.777A13.777,13.777,0,0,1,453.113,556.6Zm-143.453,0a13.777,13.777,0,1,1-13.777-13.777A13.777,13.777,0,0,1,309.659,556.6Zm-143.453,0a13.777,13.777,0,1,1-13.776-13.777A13.777,13.777,0,0,1,166.206,556.6Zm-143.453,0A13.777,13.777,0,1,1,8.976,542.826,13.777,13.777,0,0,1,22.752,556.6ZM1744.194,413.15a13.777,13.777,0,1,1-13.777-13.777,13.777,13.777,0,0,1,13.777,13.777Zm-143.453,0a13.777,13.777,0,1,1-13.777-13.777,13.777,13.777,0,0,1,13.777,13.777Zm-143.453,0a13.777,13.777,0,1,1-13.777-13.777,13.777,13.777,0,0,1,13.777,13.777Zm-143.453,0a13.777,13.777,0,1,1-13.777-13.777,13.777,13.777,0,0,1,13.777,13.777Zm-143.453,0a13.777,13.777,0,1,1-13.777-13.777,13.777,13.777,0,0,1,13.777,13.777Zm-143.453,0a13.777,13.777,0,1,1-13.777-13.777,13.777,13.777,0,0,1,13.777,13.777Zm-143.453,0A13.777,13.777,0,1,1,869.7,399.372a13.777,13.777,0,0,1,13.777,13.777Zm-143.453,0a13.777,13.777,0,1,1-13.777-13.777A13.777,13.777,0,0,1,740.02,413.15Zm-143.453,0a13.777,13.777,0,1,1-13.777-13.777,13.777,13.777,0,0,1,13.777,13.777Zm-143.453,0a13.777,13.777,0,1,1-13.777-13.777,13.777,13.777,0,0,1,13.777,13.777Zm-143.453,0a13.777,13.777,0,1,1-13.777-13.777,13.777,13.777,0,0,1,13.777,13.777Zm-143.453,0a13.777,13.777,0,1,1-13.777-13.777,13.777,13.777,0,0,1,13.777,13.777Zm-143.453,0A13.777,13.777,0,1,1,8.976,399.372,13.777,13.777,0,0,1,22.752,413.15ZM1744.194,269.7a13.777,13.777,0,1,1-13.777-13.777,13.777,13.777,0,0,1,13.777,13.777Zm-143.453,0a13.777,13.777,0,1,1-13.776-13.777A13.777,13.777,0,0,1,1600.74,269.7Zm-143.453,0a13.777,13.777,0,1,1-13.777-13.777A13.777,13.777,0,0,1,1457.287,269.7Zm-143.453,0a13.777,13.777,0,1,1-13.777-13.777,13.777,13.777,0,0,1,13.777,13.777Zm-143.453,0a13.777,13.777,0,1,1-13.777-13.777A13.777,13.777,0,0,1,1170.38,269.7Zm-143.453,0a13.777,13.777,0,1,1-13.777-13.777,13.777,13.777,0,0,1,13.777,13.777Zm-143.453,0A13.777,13.777,0,1,1,869.7,255.919,13.777,13.777,0,0,1,883.473,269.7Zm-143.453,0a13.777,13.777,0,1,1-13.777-13.777A13.777,13.777,0,0,1,740.02,269.7Zm-143.453,0a13.777,13.777,0,1,1-13.777-13.777A13.777,13.777,0,0,1,596.566,269.7Zm-143.453,0a13.777,13.777,0,1,1-13.777-13.777A13.777,13.777,0,0,1,453.113,269.7Zm-143.453,0a13.777,13.777,0,1,1-13.777-13.777A13.777,13.777,0,0,1,309.659,269.7Zm-143.453,0a13.777,13.777,0,1,1-13.776-13.777A13.777,13.777,0,0,1,166.206,269.7Zm-143.453,0A13.777,13.777,0,1,1,8.976,255.919,13.777,13.777,0,0,1,22.752,269.7ZM1744.194,126.243a13.777,13.777,0,1,1-13.777-13.777A13.777,13.777,0,0,1,1744.194,126.243Zm-143.453,0a13.777,13.777,0,1,1-13.777-13.777,13.777,13.777,0,0,1,13.777,13.777Zm-143.453,0a13.777,13.777,0,1,1-13.777-13.777,13.777,13.777,0,0,1,13.777,13.777Zm-143.453,0a13.777,13.777,0,1,1-13.777-13.777,13.777,13.777,0,0,1,13.777,13.777Zm-143.453,0a13.777,13.777,0,1,1-13.777-13.777,13.777,13.777,0,0,1,13.777,13.777Zm-143.453,0a13.777,13.777,0,1,1-13.777-13.777,13.777,13.777,0,0,1,13.777,13.777Zm-143.453,0A13.777,13.777,0,1,1,869.7,112.465a13.777,13.777,0,0,1,13.777,13.777Zm-143.453,0a13.777,13.777,0,1,1-13.777-13.777,13.777,13.777,0,0,1,13.777,13.777Zm-143.453,0a13.777,13.777,0,1,1-13.777-13.777,13.777,13.777,0,0,1,13.777,13.777Zm-143.453,0a13.777,13.777,0,1,1-13.777-13.777,13.777,13.777,0,0,1,13.777,13.777Zm-143.453,0a13.777,13.777,0,1,1-13.777-13.777,13.777,13.777,0,0,1,13.777,13.777Zm-143.453,0a13.777,13.777,0,1,1-13.777-13.777,13.777,13.777,0,0,1,13.777,13.777Zm-143.453,0A13.777,13.777,0,1,1,8.976,112.465a13.777,13.777,0,0,1,13.776,13.777ZM1744.194-17.211a13.777,13.777,0,0,1-13.778,13.777,13.777,13.777,0,0,1-13.777-13.777,13.777,13.777,0,0,1,13.778-13.777,13.777,13.777,0,0,1,13.777,13.777Zm-143.453,0a13.777,13.777,0,0,1-13.778,13.777,13.777,13.777,0,0,1-13.777-13.777,13.777,13.777,0,0,1,13.778-13.778,13.777,13.777,0,0,1,13.776,13.777Zm-143.453,0a13.777,13.777,0,0,1-13.778,13.777,13.777,13.777,0,0,1-13.777-13.777,13.777,13.777,0,0,1,13.778-13.777A13.777,13.777,0,0,1,1457.287-17.211Zm-143.453,0a13.777,13.777,0,0,1-13.778,13.777,13.777,13.777,0,0,1-13.777-13.777,13.777,13.777,0,0,1,13.778-13.778,13.777,13.777,0,0,1,13.777,13.777Zm-143.453,0A13.777,13.777,0,0,1,1156.6-3.434a13.777,13.777,0,0,1-13.777-13.777A13.777,13.777,0,0,1,1156.6-30.988,13.777,13.777,0,0,1,1170.38-17.211Zm-143.453,0a13.777,13.777,0,0,1-13.778,13.777,13.777,13.777,0,0,1-13.777-13.777,13.777,13.777,0,0,1,13.778-13.778,13.777,13.777,0,0,1,13.776,13.777Zm-143.453,0A13.777,13.777,0,0,1,869.7-3.434a13.777,13.777,0,0,1-13.777-13.777A13.777,13.777,0,0,1,869.7-30.988,13.777,13.777,0,0,1,883.473-17.211Zm-143.453,0A13.777,13.777,0,0,1,726.242-3.434a13.777,13.777,0,0,1-13.777-13.777,13.777,13.777,0,0,1,13.778-13.777A13.777,13.777,0,0,1,740.02-17.211Zm-143.453,0A13.777,13.777,0,0,1,582.788-3.434a13.777,13.777,0,0,1-13.777-13.777,13.777,13.777,0,0,1,13.778-13.777A13.777,13.777,0,0,1,596.566-17.211Zm-143.453,0A13.777,13.777,0,0,1,439.335-3.434a13.777,13.777,0,0,1-13.777-13.777,13.777,13.777,0,0,1,13.778-13.777,13.777,13.777,0,0,1,13.777,13.777Zm-143.453,0A13.777,13.777,0,0,1,295.882-3.434,13.777,13.777,0,0,1,282.1-17.211a13.777,13.777,0,0,1,13.778-13.778,13.777,13.777,0,0,1,13.777,13.777Zm-143.453,0A13.777,13.777,0,0,1,152.428-3.434a13.777,13.777,0,0,1-13.777-13.777,13.777,13.777,0,0,1,13.778-13.777,13.777,13.777,0,0,1,13.776,13.777Zm-143.453,0A13.777,13.777,0,0,1,8.975-3.434,13.777,13.777,0,0,1-4.8-17.21,13.777,13.777,0,0,1,8.976-30.988,13.777,13.777,0,0,1,22.752-17.212ZM1744.194-160.664a13.777,13.777,0,0,1-13.778,13.777,13.777,13.777,0,0,1-13.777-13.777,13.777,13.777,0,0,1,13.778-13.777A13.777,13.777,0,0,1,1744.194-160.664Zm-143.453,0a13.777,13.777,0,0,1-13.778,13.777,13.777,13.777,0,0,1-13.777-13.777,13.777,13.777,0,0,1,13.778-13.778,13.777,13.777,0,0,1,13.776,13.777Zm-143.453,0a13.777,13.777,0,0,1-13.778,13.777,13.777,13.777,0,0,1-13.777-13.777,13.777,13.777,0,0,1,13.778-13.777,13.777,13.777,0,0,1,13.777,13.777Zm-143.453,0a13.777,13.777,0,0,1-13.778,13.777,13.777,13.777,0,0,1-13.777-13.777,13.777,13.777,0,0,1,13.778-13.778,13.777,13.777,0,0,1,13.777,13.777Zm-143.453,0a13.777,13.777,0,0,1-13.778,13.777,13.777,13.777,0,0,1-13.777-13.777,13.777,13.777,0,0,1,13.778-13.777,13.777,13.777,0,0,1,13.777,13.777Zm-143.453,0a13.777,13.777,0,0,1-13.778,13.777,13.777,13.777,0,0,1-13.777-13.777,13.777,13.777,0,0,1,13.778-13.778,13.777,13.777,0,0,1,13.776,13.777Zm-143.453,0A13.777,13.777,0,0,1,869.7-146.887a13.777,13.777,0,0,1-13.777-13.777A13.777,13.777,0,0,1,869.7-174.442a13.777,13.777,0,0,1,13.777,13.777Zm-143.453,0a13.777,13.777,0,0,1-13.778,13.777,13.777,13.777,0,0,1-13.777-13.777,13.777,13.777,0,0,1,13.778-13.777,13.777,13.777,0,0,1,13.777,13.777Zm-143.453,0a13.777,13.777,0,0,1-13.778,13.777,13.777,13.777,0,0,1-13.777-13.777,13.777,13.777,0,0,1,13.778-13.777,13.777,13.777,0,0,1,13.777,13.777Zm-143.453,0a13.777,13.777,0,0,1-13.778,13.777,13.777,13.777,0,0,1-13.777-13.777,13.777,13.777,0,0,1,13.778-13.777,13.777,13.777,0,0,1,13.777,13.777Zm-143.453,0a13.777,13.777,0,0,1-13.778,13.777A13.777,13.777,0,0,1,282.1-160.664a13.777,13.777,0,0,1,13.778-13.778,13.777,13.777,0,0,1,13.776,13.777Zm-143.453,0a13.777,13.777,0,0,1-13.778,13.777,13.777,13.777,0,0,1-13.777-13.777,13.777,13.777,0,0,1,13.778-13.778,13.777,13.777,0,0,1,13.776,13.777Zm-143.453,0A13.777,13.777,0,0,1,8.975-146.887,13.777,13.777,0,0,1-4.8-160.664,13.777,13.777,0,0,1,8.976-174.442a13.777,13.777,0,0,1,13.776,13.776ZM1744.194-304.118a13.777,13.777,0,0,1-13.778,13.777,13.777,13.777,0,0,1-13.777-13.777,13.777,13.777,0,0,1,13.778-13.777,13.777,13.777,0,0,1,13.777,13.777Zm-143.453,0a13.777,13.777,0,0,1-13.778,13.777,13.777,13.777,0,0,1-13.777-13.777,13.777,13.777,0,0,1,13.778-13.778,13.777,13.777,0,0,1,13.776,13.777Zm-143.453,0a13.777,13.777,0,0,1-13.778,13.777,13.777,13.777,0,0,1-13.777-13.777A13.777,13.777,0,0,1,1443.51-317.9,13.777,13.777,0,0,1,1457.287-304.118Zm-143.453,0a13.777,13.777,0,0,1-13.778,13.777,13.777,13.777,0,0,1-13.777-13.777,13.777,13.777,0,0,1,13.778-13.778,13.777,13.777,0,0,1,13.776,13.777Zm-143.453,0a13.777,13.777,0,0,1-13.778,13.777,13.777,13.777,0,0,1-13.777-13.777A13.777,13.777,0,0,1,1156.6-317.9,13.777,13.777,0,0,1,1170.38-304.118Zm-143.453,0a13.777,13.777,0,0,1-13.778,13.777,13.777,13.777,0,0,1-13.777-13.777A13.777,13.777,0,0,1,1013.15-317.9a13.777,13.777,0,0,1,13.776,13.777Zm-143.453,0A13.777,13.777,0,0,1,869.7-290.341a13.777,13.777,0,0,1-13.777-13.777A13.777,13.777,0,0,1,869.7-317.9,13.777,13.777,0,0,1,883.473-304.118Zm-143.453,0a13.777,13.777,0,0,1-13.778,13.777,13.777,13.777,0,0,1-13.777-13.777A13.777,13.777,0,0,1,726.243-317.9,13.777,13.777,0,0,1,740.02-304.118Zm-143.453,0a13.777,13.777,0,0,1-13.778,13.777,13.777,13.777,0,0,1-13.777-13.777A13.777,13.777,0,0,1,582.789-317.9,13.777,13.777,0,0,1,596.566-304.118Zm-143.453,0a13.777,13.777,0,0,1-13.778,13.777,13.777,13.777,0,0,1-13.777-13.777A13.777,13.777,0,0,1,439.336-317.9a13.777,13.777,0,0,1,13.777,13.777Zm-143.453,0a13.777,13.777,0,0,1-13.778,13.777A13.777,13.777,0,0,1,282.1-304.118,13.777,13.777,0,0,1,295.883-317.9a13.777,13.777,0,0,1,13.776,13.777Zm-143.453,0a13.777,13.777,0,0,1-13.778,13.777,13.777,13.777,0,0,1-13.777-13.777A13.777,13.777,0,0,1,152.429-317.9a13.777,13.777,0,0,1,13.776,13.777Zm-143.453,0A13.777,13.777,0,0,1,8.975-290.341,13.777,13.777,0,0,1-4.8-304.117,13.777,13.777,0,0,1,8.976-317.9a13.777,13.777,0,0,1,13.776,13.776ZM1744.194-447.571a13.777,13.777,0,0,1-13.778,13.777,13.777,13.777,0,0,1-13.777-13.777,13.777,13.777,0,0,1,13.778-13.777A13.777,13.777,0,0,1,1744.194-447.571Zm-143.453,0a13.777,13.777,0,0,1-13.778,13.777,13.777,13.777,0,0,1-13.777-13.777,13.777,13.777,0,0,1,13.778-13.777A13.777,13.777,0,0,1,1600.74-447.571Zm-143.453,0a13.777,13.777,0,0,1-13.777,13.777,13.777,13.777,0,0,1-13.777-13.777,13.777,13.777,0,0,1,13.778-13.777,13.777,13.777,0,0,1,13.777,13.777Zm-143.453,0a13.777,13.777,0,0,1-13.778,13.777,13.777,13.777,0,0,1-13.777-13.777,13.777,13.777,0,0,1,13.778-13.777,13.777,13.777,0,0,1,13.777,13.777Zm-143.453,0a13.777,13.777,0,0,1-13.777,13.777,13.777,13.777,0,0,1-13.777-13.777,13.777,13.777,0,0,1,13.778-13.777A13.777,13.777,0,0,1,1170.38-447.571Zm-143.453,0a13.777,13.777,0,0,1-13.778,13.777,13.777,13.777,0,0,1-13.777-13.777,13.777,13.777,0,0,1,13.778-13.777,13.777,13.777,0,0,1,13.777,13.777Zm-143.453,0A13.777,13.777,0,0,1,869.7-433.794a13.777,13.777,0,0,1-13.777-13.777A13.777,13.777,0,0,1,869.7-461.349a13.777,13.777,0,0,1,13.777,13.778Zm-143.453,0a13.777,13.777,0,0,1-13.778,13.777,13.777,13.777,0,0,1-13.777-13.777,13.777,13.777,0,0,1,13.778-13.777A13.777,13.777,0,0,1,740.02-447.571Zm-143.453,0a13.777,13.777,0,0,1-13.778,13.777,13.777,13.777,0,0,1-13.777-13.777,13.777,13.777,0,0,1,13.778-13.777,13.777,13.777,0,0,1,13.777,13.777Zm-143.453,0a13.777,13.777,0,0,1-13.778,13.777,13.777,13.777,0,0,1-13.777-13.777,13.777,13.777,0,0,1,13.778-13.777,13.777,13.777,0,0,1,13.777,13.777Zm-143.453,0a13.777,13.777,0,0,1-13.778,13.777A13.777,13.777,0,0,1,282.1-447.571a13.777,13.777,0,0,1,13.778-13.778,13.777,13.777,0,0,1,13.776,13.777Zm-143.453,0a13.777,13.777,0,0,1-13.778,13.777,13.777,13.777,0,0,1-13.777-13.777,13.777,13.777,0,0,1,13.777-13.777,13.777,13.777,0,0,1,13.777,13.777Zm-143.453,0A13.777,13.777,0,0,1,8.975-433.794,13.777,13.777,0,0,1-4.8-447.571,13.777,13.777,0,0,1,8.976-461.348a13.777,13.777,0,0,1,13.776,13.776ZM1744.194-591.025a13.777,13.777,0,0,1-13.778,13.777,13.777,13.777,0,0,1-13.777-13.777,13.777,13.777,0,0,1,13.778-13.777A13.777,13.777,0,0,1,1744.194-591.025Zm-143.453,0a13.777,13.777,0,0,1-13.778,13.777,13.777,13.777,0,0,1-13.777-13.777,13.777,13.777,0,0,1,13.778-13.777,13.777,13.777,0,0,1,13.777,13.777Zm-143.453,0a13.777,13.777,0,0,1-13.778,13.777,13.777,13.777,0,0,1-13.777-13.777A13.777,13.777,0,0,1,1443.51-604.8,13.777,13.777,0,0,1,1457.287-591.025Zm-143.453,0a13.777,13.777,0,0,1-13.778,13.777,13.777,13.777,0,0,1-13.777-13.777,13.777,13.777,0,0,1,13.778-13.777,13.777,13.777,0,0,1,13.777,13.777Zm-143.453,0a13.777,13.777,0,0,1-13.778,13.777,13.777,13.777,0,0,1-13.777-13.777A13.777,13.777,0,0,1,1156.6-604.8,13.777,13.777,0,0,1,1170.38-591.025Zm-143.453,0a13.777,13.777,0,0,1-13.778,13.777,13.777,13.777,0,0,1-13.777-13.777A13.777,13.777,0,0,1,1013.15-604.8a13.777,13.777,0,0,1,13.777,13.777Zm-143.453,0A13.777,13.777,0,0,1,869.7-577.247a13.777,13.777,0,0,1-13.777-13.777A13.777,13.777,0,0,1,869.7-604.8,13.777,13.777,0,0,1,883.473-591.025Zm-143.453,0a13.777,13.777,0,0,1-13.778,13.777,13.777,13.777,0,0,1-13.777-13.777A13.777,13.777,0,0,1,726.243-604.8,13.777,13.777,0,0,1,740.02-591.025Zm-143.453,0a13.777,13.777,0,0,1-13.778,13.777,13.777,13.777,0,0,1-13.777-13.777A13.777,13.777,0,0,1,582.789-604.8a13.777,13.777,0,0,1,13.777,13.777Zm-143.453,0a13.777,13.777,0,0,1-13.778,13.777,13.777,13.777,0,0,1-13.777-13.777A13.777,13.777,0,0,1,439.336-604.8a13.777,13.777,0,0,1,13.777,13.778Zm-143.453,0a13.777,13.777,0,0,1-13.778,13.777A13.777,13.777,0,0,1,282.1-591.025,13.777,13.777,0,0,1,295.883-604.8a13.777,13.777,0,0,1,13.777,13.777Zm-143.453,0a13.777,13.777,0,0,1-13.778,13.777,13.777,13.777,0,0,1-13.777-13.777A13.777,13.777,0,0,1,152.429-604.8a13.777,13.777,0,0,1,13.776,13.777Zm-143.453,0A13.777,13.777,0,0,1,8.975-577.247,13.777,13.777,0,0,1-4.8-591.024,13.777,13.777,0,0,1,8.976-604.8a13.777,13.777,0,0,1,13.776,13.777Z" transform="translate(-402.714 192.106)" fill="#c4c4c4" stroke="#000" stroke-width="0" opacity="0.1"/>
      <path id="ellipse8455-4" data-name="ellipse8455" d="M1744.194,1130.417a13.777,13.777,0,1,1-13.778-13.777,13.777,13.777,0,0,1,13.778,13.777Zm-143.453,0a13.777,13.777,0,1,1-13.778-13.777,13.777,13.777,0,0,1,13.778,13.777Zm-143.453,0a13.777,13.777,0,1,1-13.778-13.777,13.777,13.777,0,0,1,13.778,13.777Zm-143.453,0a13.777,13.777,0,1,1-13.778-13.777,13.777,13.777,0,0,1,13.778,13.777Zm-143.453,0a13.777,13.777,0,1,1-13.778-13.777,13.777,13.777,0,0,1,13.778,13.777Zm-143.453,0a13.777,13.777,0,1,1-13.778-13.777,13.777,13.777,0,0,1,13.778,13.777Zm-143.453,0A13.777,13.777,0,1,1,869.7,1116.64a13.777,13.777,0,0,1,13.778,13.777Zm-143.453,0a13.777,13.777,0,1,1-13.778-13.777,13.777,13.777,0,0,1,13.778,13.777Zm-143.453,0a13.777,13.777,0,1,1-13.778-13.777,13.777,13.777,0,0,1,13.778,13.777Zm-143.453,0a13.777,13.777,0,1,1-13.778-13.777,13.777,13.777,0,0,1,13.778,13.777Zm-143.453,0a13.777,13.777,0,1,1-13.777-13.777,13.777,13.777,0,0,1,13.777,13.777Zm-143.453,0a13.777,13.777,0,1,1-13.777-13.777,13.777,13.777,0,0,1,13.777,13.777Zm-143.453,0A13.777,13.777,0,1,1,8.975,1116.64a13.777,13.777,0,0,1,13.777,13.777ZM1744.194,986.963a13.777,13.777,0,1,1-13.777-13.777,13.777,13.777,0,0,1,13.777,13.777Zm-143.453,0a13.777,13.777,0,1,1-13.777-13.777,13.777,13.777,0,0,1,13.777,13.777Zm-143.453,0a13.777,13.777,0,1,1-13.777-13.777,13.777,13.777,0,0,1,13.777,13.777Zm-143.453,0a13.777,13.777,0,1,1-13.777-13.777,13.777,13.777,0,0,1,13.777,13.777Zm-143.453,0a13.777,13.777,0,1,1-13.777-13.777,13.777,13.777,0,0,1,13.777,13.777Zm-143.453,0a13.777,13.777,0,1,1-13.777-13.777,13.777,13.777,0,0,1,13.777,13.777Zm-143.453,0A13.777,13.777,0,1,1,869.7,973.186a13.777,13.777,0,0,1,13.778,13.777Zm-143.453,0a13.777,13.777,0,1,1-13.777-13.777,13.777,13.777,0,0,1,13.777,13.777Zm-143.453,0a13.777,13.777,0,1,1-13.777-13.777,13.777,13.777,0,0,1,13.777,13.777Zm-143.453,0a13.777,13.777,0,1,1-13.778-13.777,13.777,13.777,0,0,1,13.778,13.777Zm-143.453,0a13.777,13.777,0,1,1-13.777-13.777,13.777,13.777,0,0,1,13.777,13.777Zm-143.453,0a13.777,13.777,0,1,1-13.777-13.777,13.777,13.777,0,0,1,13.777,13.777Zm-143.454,0A13.777,13.777,0,1,1,8.975,973.186a13.777,13.777,0,0,1,13.777,13.777ZM1744.194,843.51a13.777,13.777,0,1,1-13.777-13.777,13.777,13.777,0,0,1,13.777,13.777Zm-143.453,0a13.777,13.777,0,1,1-13.777-13.777,13.777,13.777,0,0,1,13.777,13.777Zm-143.453,0a13.777,13.777,0,1,1-13.777-13.777,13.777,13.777,0,0,1,13.777,13.777Zm-143.453,0a13.777,13.777,0,1,1-13.777-13.777,13.777,13.777,0,0,1,13.777,13.777Zm-143.453,0a13.777,13.777,0,1,1-13.777-13.777,13.777,13.777,0,0,1,13.777,13.777Zm-143.453,0a13.777,13.777,0,1,1-13.777-13.777,13.777,13.777,0,0,1,13.777,13.777Zm-143.453,0A13.777,13.777,0,1,1,869.7,829.733a13.777,13.777,0,0,1,13.777,13.777Zm-143.453,0a13.777,13.777,0,1,1-13.777-13.777A13.777,13.777,0,0,1,740.02,843.51Zm-143.453,0a13.777,13.777,0,1,1-13.777-13.777,13.777,13.777,0,0,1,13.777,13.777Zm-143.453,0a13.777,13.777,0,1,1-13.777-13.777,13.777,13.777,0,0,1,13.777,13.777Zm-143.453,0a13.777,13.777,0,1,1-13.777-13.777A13.777,13.777,0,0,1,309.659,843.51Zm-143.453,0a13.777,13.777,0,1,1-13.777-13.777,13.777,13.777,0,0,1,13.777,13.777Zm-143.453,0A13.777,13.777,0,1,1,8.976,829.733,13.777,13.777,0,0,1,22.752,843.51ZM1744.194,700.056a13.777,13.777,0,1,1-13.777-13.777,13.777,13.777,0,0,1,13.777,13.777Zm-143.453,0a13.777,13.777,0,1,1-13.777-13.777,13.777,13.777,0,0,1,13.777,13.777Zm-143.453,0a13.777,13.777,0,1,1-13.777-13.777A13.777,13.777,0,0,1,1457.287,700.056Zm-143.453,0a13.777,13.777,0,1,1-13.777-13.777,13.777,13.777,0,0,1,13.777,13.777Zm-143.453,0a13.777,13.777,0,1,1-13.777-13.777A13.777,13.777,0,0,1,1170.38,700.056Zm-143.453,0a13.777,13.777,0,1,1-13.777-13.777,13.777,13.777,0,0,1,13.777,13.777Zm-143.453,0A13.777,13.777,0,1,1,869.7,686.279,13.777,13.777,0,0,1,883.473,700.056Zm-143.453,0a13.777,13.777,0,1,1-13.777-13.777A13.777,13.777,0,0,1,740.02,700.056Zm-143.453,0a13.777,13.777,0,1,1-13.777-13.777,13.777,13.777,0,0,1,13.777,13.777Zm-143.453,0a13.777,13.777,0,1,1-13.777-13.777,13.777,13.777,0,0,1,13.777,13.777Zm-143.453,0a13.777,13.777,0,1,1-13.776-13.777,13.777,13.777,0,0,1,13.776,13.777Zm-143.453,0a13.777,13.777,0,1,1-13.777-13.777,13.777,13.777,0,0,1,13.777,13.777Zm-143.453,0A13.777,13.777,0,1,1,8.976,686.279a13.777,13.777,0,0,1,13.776,13.777ZM1744.194,556.6a13.777,13.777,0,1,1-13.777-13.777,13.777,13.777,0,0,1,13.777,13.777Zm-143.453,0a13.777,13.777,0,1,1-13.777-13.777A13.777,13.777,0,0,1,1600.74,556.6Zm-143.453,0a13.777,13.777,0,1,1-13.777-13.777A13.777,13.777,0,0,1,1457.287,556.6Zm-143.453,0a13.777,13.777,0,1,1-13.777-13.777,13.777,13.777,0,0,1,13.777,13.777Zm-143.453,0a13.777,13.777,0,1,1-13.777-13.777A13.777,13.777,0,0,1,1170.38,556.6Zm-143.453,0a13.777,13.777,0,1,1-13.777-13.777,13.777,13.777,0,0,1,13.777,13.777Zm-143.453,0A13.777,13.777,0,1,1,869.7,542.826,13.777,13.777,0,0,1,883.473,556.6Zm-143.453,0a13.777,13.777,0,1,1-13.777-13.777A13.777,13.777,0,0,1,740.02,556.6Zm-143.453,0a13.777,13.777,0,1,1-13.777-13.777A13.777,13.777,0,0,1,596.566,556.6Zm-143.453,0a13.777,13.777,0,1,1-13.777-13.777A13.777,13.777,0,0,1,453.113,556.6Zm-143.453,0a13.777,13.777,0,1,1-13.777-13.777A13.777,13.777,0,0,1,309.659,556.6Zm-143.453,0a13.777,13.777,0,1,1-13.776-13.777A13.777,13.777,0,0,1,166.206,556.6Zm-143.453,0A13.777,13.777,0,1,1,8.976,542.826,13.777,13.777,0,0,1,22.752,556.6ZM1744.194,413.15a13.777,13.777,0,1,1-13.777-13.777,13.777,13.777,0,0,1,13.777,13.777Zm-143.453,0a13.777,13.777,0,1,1-13.777-13.777,13.777,13.777,0,0,1,13.777,13.777Zm-143.453,0a13.777,13.777,0,1,1-13.777-13.777,13.777,13.777,0,0,1,13.777,13.777Zm-143.453,0a13.777,13.777,0,1,1-13.777-13.777,13.777,13.777,0,0,1,13.777,13.777Zm-143.453,0a13.777,13.777,0,1,1-13.777-13.777,13.777,13.777,0,0,1,13.777,13.777Zm-143.453,0a13.777,13.777,0,1,1-13.777-13.777,13.777,13.777,0,0,1,13.777,13.777Zm-143.453,0A13.777,13.777,0,1,1,869.7,399.372a13.777,13.777,0,0,1,13.777,13.777Zm-143.453,0a13.777,13.777,0,1,1-13.777-13.777A13.777,13.777,0,0,1,740.02,413.15Zm-143.453,0a13.777,13.777,0,1,1-13.777-13.777,13.777,13.777,0,0,1,13.777,13.777Zm-143.453,0a13.777,13.777,0,1,1-13.777-13.777,13.777,13.777,0,0,1,13.777,13.777Zm-143.453,0a13.777,13.777,0,1,1-13.777-13.777,13.777,13.777,0,0,1,13.777,13.777Zm-143.453,0a13.777,13.777,0,1,1-13.777-13.777,13.777,13.777,0,0,1,13.777,13.777Zm-143.453,0A13.777,13.777,0,1,1,8.976,399.372,13.777,13.777,0,0,1,22.752,413.15ZM1744.194,269.7a13.777,13.777,0,1,1-13.777-13.777,13.777,13.777,0,0,1,13.777,13.777Zm-143.453,0a13.777,13.777,0,1,1-13.776-13.777A13.777,13.777,0,0,1,1600.74,269.7Zm-143.453,0a13.777,13.777,0,1,1-13.777-13.777A13.777,13.777,0,0,1,1457.287,269.7Zm-143.453,0a13.777,13.777,0,1,1-13.777-13.777,13.777,13.777,0,0,1,13.777,13.777Zm-143.453,0a13.777,13.777,0,1,1-13.777-13.777A13.777,13.777,0,0,1,1170.38,269.7Zm-143.453,0a13.777,13.777,0,1,1-13.777-13.777,13.777,13.777,0,0,1,13.777,13.777Zm-143.453,0A13.777,13.777,0,1,1,869.7,255.919,13.777,13.777,0,0,1,883.473,269.7Zm-143.453,0a13.777,13.777,0,1,1-13.777-13.777A13.777,13.777,0,0,1,740.02,269.7Zm-143.453,0a13.777,13.777,0,1,1-13.777-13.777A13.777,13.777,0,0,1,596.566,269.7Zm-143.453,0a13.777,13.777,0,1,1-13.777-13.777A13.777,13.777,0,0,1,453.113,269.7Zm-143.453,0a13.777,13.777,0,1,1-13.777-13.777A13.777,13.777,0,0,1,309.659,269.7Zm-143.453,0a13.777,13.777,0,1,1-13.776-13.777A13.777,13.777,0,0,1,166.206,269.7Zm-143.453,0A13.777,13.777,0,1,1,8.976,255.919,13.777,13.777,0,0,1,22.752,269.7ZM1744.194,126.243a13.777,13.777,0,1,1-13.777-13.777A13.777,13.777,0,0,1,1744.194,126.243Zm-143.453,0a13.777,13.777,0,1,1-13.777-13.777,13.777,13.777,0,0,1,13.777,13.777Zm-143.453,0a13.777,13.777,0,1,1-13.777-13.777,13.777,13.777,0,0,1,13.777,13.777Zm-143.453,0a13.777,13.777,0,1,1-13.777-13.777,13.777,13.777,0,0,1,13.777,13.777Zm-143.453,0a13.777,13.777,0,1,1-13.777-13.777,13.777,13.777,0,0,1,13.777,13.777Zm-143.453,0a13.777,13.777,0,1,1-13.777-13.777,13.777,13.777,0,0,1,13.777,13.777Zm-143.453,0A13.777,13.777,0,1,1,869.7,112.465a13.777,13.777,0,0,1,13.777,13.777Zm-143.453,0a13.777,13.777,0,1,1-13.777-13.777,13.777,13.777,0,0,1,13.777,13.777Zm-143.453,0a13.777,13.777,0,1,1-13.777-13.777,13.777,13.777,0,0,1,13.777,13.777Zm-143.453,0a13.777,13.777,0,1,1-13.777-13.777,13.777,13.777,0,0,1,13.777,13.777Zm-143.453,0a13.777,13.777,0,1,1-13.777-13.777,13.777,13.777,0,0,1,13.777,13.777Zm-143.453,0a13.777,13.777,0,1,1-13.777-13.777,13.777,13.777,0,0,1,13.777,13.777Zm-143.453,0A13.777,13.777,0,1,1,8.976,112.465a13.777,13.777,0,0,1,13.776,13.777ZM1744.194-17.211a13.777,13.777,0,0,1-13.778,13.777,13.777,13.777,0,0,1-13.777-13.777,13.777,13.777,0,0,1,13.778-13.777,13.777,13.777,0,0,1,13.777,13.777Zm-143.453,0a13.777,13.777,0,0,1-13.778,13.777,13.777,13.777,0,0,1-13.777-13.777,13.777,13.777,0,0,1,13.778-13.778,13.777,13.777,0,0,1,13.776,13.777Zm-143.453,0a13.777,13.777,0,0,1-13.778,13.777,13.777,13.777,0,0,1-13.777-13.777,13.777,13.777,0,0,1,13.778-13.777A13.777,13.777,0,0,1,1457.287-17.211Zm-143.453,0a13.777,13.777,0,0,1-13.778,13.777,13.777,13.777,0,0,1-13.777-13.777,13.777,13.777,0,0,1,13.778-13.778,13.777,13.777,0,0,1,13.777,13.777Zm-143.453,0A13.777,13.777,0,0,1,1156.6-3.434a13.777,13.777,0,0,1-13.777-13.777A13.777,13.777,0,0,1,1156.6-30.988,13.777,13.777,0,0,1,1170.38-17.211Zm-143.453,0a13.777,13.777,0,0,1-13.778,13.777,13.777,13.777,0,0,1-13.777-13.777,13.777,13.777,0,0,1,13.778-13.778,13.777,13.777,0,0,1,13.776,13.777Zm-143.453,0A13.777,13.777,0,0,1,869.7-3.434a13.777,13.777,0,0,1-13.777-13.777A13.777,13.777,0,0,1,869.7-30.988,13.777,13.777,0,0,1,883.473-17.211Zm-143.453,0A13.777,13.777,0,0,1,726.242-3.434a13.777,13.777,0,0,1-13.777-13.777,13.777,13.777,0,0,1,13.778-13.777A13.777,13.777,0,0,1,740.02-17.211Zm-143.453,0A13.777,13.777,0,0,1,582.788-3.434a13.777,13.777,0,0,1-13.777-13.777,13.777,13.777,0,0,1,13.778-13.777A13.777,13.777,0,0,1,596.566-17.211Zm-143.453,0A13.777,13.777,0,0,1,439.335-3.434a13.777,13.777,0,0,1-13.777-13.777,13.777,13.777,0,0,1,13.778-13.777,13.777,13.777,0,0,1,13.777,13.777Zm-143.453,0A13.777,13.777,0,0,1,295.882-3.434,13.777,13.777,0,0,1,282.1-17.211a13.777,13.777,0,0,1,13.778-13.778,13.777,13.777,0,0,1,13.777,13.777Zm-143.453,0A13.777,13.777,0,0,1,152.428-3.434a13.777,13.777,0,0,1-13.777-13.777,13.777,13.777,0,0,1,13.778-13.777,13.777,13.777,0,0,1,13.776,13.777Zm-143.453,0A13.777,13.777,0,0,1,8.975-3.434,13.777,13.777,0,0,1-4.8-17.21,13.777,13.777,0,0,1,8.976-30.988,13.777,13.777,0,0,1,22.752-17.212ZM1744.194-160.664a13.777,13.777,0,0,1-13.778,13.777,13.777,13.777,0,0,1-13.777-13.777,13.777,13.777,0,0,1,13.778-13.777A13.777,13.777,0,0,1,1744.194-160.664Zm-143.453,0a13.777,13.777,0,0,1-13.778,13.777,13.777,13.777,0,0,1-13.777-13.777,13.777,13.777,0,0,1,13.778-13.778,13.777,13.777,0,0,1,13.776,13.777Zm-143.453,0a13.777,13.777,0,0,1-13.778,13.777,13.777,13.777,0,0,1-13.777-13.777,13.777,13.777,0,0,1,13.778-13.777,13.777,13.777,0,0,1,13.777,13.777Zm-143.453,0a13.777,13.777,0,0,1-13.778,13.777,13.777,13.777,0,0,1-13.777-13.777,13.777,13.777,0,0,1,13.778-13.778,13.777,13.777,0,0,1,13.777,13.777Zm-143.453,0a13.777,13.777,0,0,1-13.778,13.777,13.777,13.777,0,0,1-13.777-13.777,13.777,13.777,0,0,1,13.778-13.777,13.777,13.777,0,0,1,13.777,13.777Zm-143.453,0a13.777,13.777,0,0,1-13.778,13.777,13.777,13.777,0,0,1-13.777-13.777,13.777,13.777,0,0,1,13.778-13.778,13.777,13.777,0,0,1,13.776,13.777Zm-143.453,0A13.777,13.777,0,0,1,869.7-146.887a13.777,13.777,0,0,1-13.777-13.777A13.777,13.777,0,0,1,869.7-174.442a13.777,13.777,0,0,1,13.777,13.777Zm-143.453,0a13.777,13.777,0,0,1-13.778,13.777,13.777,13.777,0,0,1-13.777-13.777,13.777,13.777,0,0,1,13.778-13.777,13.777,13.777,0,0,1,13.777,13.777Zm-143.453,0a13.777,13.777,0,0,1-13.778,13.777,13.777,13.777,0,0,1-13.777-13.777,13.777,13.777,0,0,1,13.778-13.777,13.777,13.777,0,0,1,13.777,13.777Zm-143.453,0a13.777,13.777,0,0,1-13.778,13.777,13.777,13.777,0,0,1-13.777-13.777,13.777,13.777,0,0,1,13.778-13.777,13.777,13.777,0,0,1,13.777,13.777Zm-143.453,0a13.777,13.777,0,0,1-13.778,13.777A13.777,13.777,0,0,1,282.1-160.664a13.777,13.777,0,0,1,13.778-13.778,13.777,13.777,0,0,1,13.776,13.777Zm-143.453,0a13.777,13.777,0,0,1-13.778,13.777,13.777,13.777,0,0,1-13.777-13.777,13.777,13.777,0,0,1,13.778-13.778,13.777,13.777,0,0,1,13.776,13.777Zm-143.453,0A13.777,13.777,0,0,1,8.975-146.887,13.777,13.777,0,0,1-4.8-160.664,13.777,13.777,0,0,1,8.976-174.442a13.777,13.777,0,0,1,13.776,13.776ZM1744.194-304.118a13.777,13.777,0,0,1-13.778,13.777,13.777,13.777,0,0,1-13.777-13.777,13.777,13.777,0,0,1,13.778-13.777,13.777,13.777,0,0,1,13.777,13.777Zm-143.453,0a13.777,13.777,0,0,1-13.778,13.777,13.777,13.777,0,0,1-13.777-13.777,13.777,13.777,0,0,1,13.778-13.778,13.777,13.777,0,0,1,13.776,13.777Zm-143.453,0a13.777,13.777,0,0,1-13.778,13.777,13.777,13.777,0,0,1-13.777-13.777A13.777,13.777,0,0,1,1443.51-317.9,13.777,13.777,0,0,1,1457.287-304.118Zm-143.453,0a13.777,13.777,0,0,1-13.778,13.777,13.777,13.777,0,0,1-13.777-13.777,13.777,13.777,0,0,1,13.778-13.778,13.777,13.777,0,0,1,13.776,13.777Zm-143.453,0a13.777,13.777,0,0,1-13.778,13.777,13.777,13.777,0,0,1-13.777-13.777A13.777,13.777,0,0,1,1156.6-317.9,13.777,13.777,0,0,1,1170.38-304.118Zm-143.453,0a13.777,13.777,0,0,1-13.778,13.777,13.777,13.777,0,0,1-13.777-13.777A13.777,13.777,0,0,1,1013.15-317.9a13.777,13.777,0,0,1,13.776,13.777Zm-143.453,0A13.777,13.777,0,0,1,869.7-290.341a13.777,13.777,0,0,1-13.777-13.777A13.777,13.777,0,0,1,869.7-317.9,13.777,13.777,0,0,1,883.473-304.118Zm-143.453,0a13.777,13.777,0,0,1-13.778,13.777,13.777,13.777,0,0,1-13.777-13.777A13.777,13.777,0,0,1,726.243-317.9,13.777,13.777,0,0,1,740.02-304.118Zm-143.453,0a13.777,13.777,0,0,1-13.778,13.777,13.777,13.777,0,0,1-13.777-13.777A13.777,13.777,0,0,1,582.789-317.9,13.777,13.777,0,0,1,596.566-304.118Zm-143.453,0a13.777,13.777,0,0,1-13.778,13.777,13.777,13.777,0,0,1-13.777-13.777A13.777,13.777,0,0,1,439.336-317.9a13.777,13.777,0,0,1,13.777,13.777Zm-143.453,0a13.777,13.777,0,0,1-13.778,13.777A13.777,13.777,0,0,1,282.1-304.118,13.777,13.777,0,0,1,295.883-317.9a13.777,13.777,0,0,1,13.776,13.777Zm-143.453,0a13.777,13.777,0,0,1-13.778,13.777,13.777,13.777,0,0,1-13.777-13.777A13.777,13.777,0,0,1,152.429-317.9a13.777,13.777,0,0,1,13.776,13.777Zm-143.453,0A13.777,13.777,0,0,1,8.975-290.341,13.777,13.777,0,0,1-4.8-304.117,13.777,13.777,0,0,1,8.976-317.9a13.777,13.777,0,0,1,13.776,13.776ZM1744.194-447.571a13.777,13.777,0,0,1-13.778,13.777,13.777,13.777,0,0,1-13.777-13.777,13.777,13.777,0,0,1,13.778-13.777A13.777,13.777,0,0,1,1744.194-447.571Zm-143.453,0a13.777,13.777,0,0,1-13.778,13.777,13.777,13.777,0,0,1-13.777-13.777,13.777,13.777,0,0,1,13.778-13.777A13.777,13.777,0,0,1,1600.74-447.571Zm-143.453,0a13.777,13.777,0,0,1-13.777,13.777,13.777,13.777,0,0,1-13.777-13.777,13.777,13.777,0,0,1,13.778-13.777,13.777,13.777,0,0,1,13.777,13.777Zm-143.453,0a13.777,13.777,0,0,1-13.778,13.777,13.777,13.777,0,0,1-13.777-13.777,13.777,13.777,0,0,1,13.778-13.777,13.777,13.777,0,0,1,13.777,13.777Zm-143.453,0a13.777,13.777,0,0,1-13.777,13.777,13.777,13.777,0,0,1-13.777-13.777,13.777,13.777,0,0,1,13.778-13.777A13.777,13.777,0,0,1,1170.38-447.571Zm-143.453,0a13.777,13.777,0,0,1-13.778,13.777,13.777,13.777,0,0,1-13.777-13.777,13.777,13.777,0,0,1,13.778-13.777,13.777,13.777,0,0,1,13.777,13.777Zm-143.453,0A13.777,13.777,0,0,1,869.7-433.794a13.777,13.777,0,0,1-13.777-13.777A13.777,13.777,0,0,1,869.7-461.349a13.777,13.777,0,0,1,13.777,13.778Zm-143.453,0a13.777,13.777,0,0,1-13.778,13.777,13.777,13.777,0,0,1-13.777-13.777,13.777,13.777,0,0,1,13.778-13.777A13.777,13.777,0,0,1,740.02-447.571Zm-143.453,0a13.777,13.777,0,0,1-13.778,13.777,13.777,13.777,0,0,1-13.777-13.777,13.777,13.777,0,0,1,13.778-13.777,13.777,13.777,0,0,1,13.777,13.777Zm-143.453,0a13.777,13.777,0,0,1-13.778,13.777,13.777,13.777,0,0,1-13.777-13.777,13.777,13.777,0,0,1,13.778-13.777,13.777,13.777,0,0,1,13.777,13.777Zm-143.453,0a13.777,13.777,0,0,1-13.778,13.777A13.777,13.777,0,0,1,282.1-447.571a13.777,13.777,0,0,1,13.778-13.778,13.777,13.777,0,0,1,13.776,13.777Zm-143.453,0a13.777,13.777,0,0,1-13.778,13.777,13.777,13.777,0,0,1-13.777-13.777,13.777,13.777,0,0,1,13.777-13.777,13.777,13.777,0,0,1,13.777,13.777Zm-143.453,0A13.777,13.777,0,0,1,8.975-433.794,13.777,13.777,0,0,1-4.8-447.571,13.777,13.777,0,0,1,8.976-461.348a13.777,13.777,0,0,1,13.776,13.776ZM1744.194-591.025a13.777,13.777,0,0,1-13.778,13.777,13.777,13.777,0,0,1-13.777-13.777,13.777,13.777,0,0,1,13.778-13.777A13.777,13.777,0,0,1,1744.194-591.025Zm-143.453,0a13.777,13.777,0,0,1-13.778,13.777,13.777,13.777,0,0,1-13.777-13.777,13.777,13.777,0,0,1,13.778-13.777,13.777,13.777,0,0,1,13.777,13.777Zm-143.453,0a13.777,13.777,0,0,1-13.778,13.777,13.777,13.777,0,0,1-13.777-13.777A13.777,13.777,0,0,1,1443.51-604.8,13.777,13.777,0,0,1,1457.287-591.025Zm-143.453,0a13.777,13.777,0,0,1-13.778,13.777,13.777,13.777,0,0,1-13.777-13.777,13.777,13.777,0,0,1,13.778-13.777,13.777,13.777,0,0,1,13.777,13.777Zm-143.453,0a13.777,13.777,0,0,1-13.778,13.777,13.777,13.777,0,0,1-13.777-13.777A13.777,13.777,0,0,1,1156.6-604.8,13.777,13.777,0,0,1,1170.38-591.025Zm-143.453,0a13.777,13.777,0,0,1-13.778,13.777,13.777,13.777,0,0,1-13.777-13.777A13.777,13.777,0,0,1,1013.15-604.8a13.777,13.777,0,0,1,13.777,13.777Zm-143.453,0A13.777,13.777,0,0,1,869.7-577.247a13.777,13.777,0,0,1-13.777-13.777A13.777,13.777,0,0,1,869.7-604.8,13.777,13.777,0,0,1,883.473-591.025Zm-143.453,0a13.777,13.777,0,0,1-13.778,13.777,13.777,13.777,0,0,1-13.777-13.777A13.777,13.777,0,0,1,726.243-604.8,13.777,13.777,0,0,1,740.02-591.025Zm-143.453,0a13.777,13.777,0,0,1-13.778,13.777,13.777,13.777,0,0,1-13.777-13.777A13.777,13.777,0,0,1,582.789-604.8a13.777,13.777,0,0,1,13.777,13.777Zm-143.453,0a13.777,13.777,0,0,1-13.778,13.777,13.777,13.777,0,0,1-13.777-13.777A13.777,13.777,0,0,1,439.336-604.8a13.777,13.777,0,0,1,13.777,13.778Zm-143.453,0a13.777,13.777,0,0,1-13.778,13.777A13.777,13.777,0,0,1,282.1-591.025,13.777,13.777,0,0,1,295.883-604.8a13.777,13.777,0,0,1,13.777,13.777Zm-143.453,0a13.777,13.777,0,0,1-13.778,13.777,13.777,13.777,0,0,1-13.777-13.777A13.777,13.777,0,0,1,152.429-604.8a13.777,13.777,0,0,1,13.776,13.777Zm-143.453,0A13.777,13.777,0,0,1,8.975-577.247,13.777,13.777,0,0,1-4.8-591.024,13.777,13.777,0,0,1,8.976-604.8a13.777,13.777,0,0,1,13.776,13.777Z" transform="translate(-402.714 192.106)" fill="#c4c4c4" stroke="#000" stroke-width="0" opacity="0.1"/>
    </g>
  </g>
</svg>
