<svg id="Layer_1" xmlns="http://www.w3.org/2000/svg" width="34.705" height="34.705" viewBox="0 0 34.705 34.705">
  <path id="Path_2" data-name="Path 2" d="M32.647,14.224l.5-4.785-4.4-1.955L26.8,3.088l-4.785.5L18.117.765,14.223,3.588l-4.784-.5L7.483,7.483l-4.4,1.956.5,4.784L.765,18.117l2.823,3.894-.5,4.785,4.4,1.955,1.955,4.4,4.785-.5,3.9,2.823,3.894-2.823,4.784.5,1.955-4.395,4.4-1.956-.5-4.784,2.823-3.894Zm-14.53,7.787v-.4h-.451l.451.4-.451-.4v0l.451.4h-.451l.451-.4h0v.4h0Z" transform="translate(-0.765 -0.765)" fill="#2680eb"/>
  <path id="Path_3" data-name="Path 3" d="M18.811,26.959l-4.506-4.506-1.012,1.012,5.518,5.518L31.49,16.305l-1.012-1.012Z" transform="translate(-4.323 -4.891)" fill="#fff"/>
</svg>
